{"glyphs":{"0":{"ha":789,"x_min":71,"x_max":718,"o":"m 625 100 q 397 -12 536 -12 q 166 100 258 -12 q 73 392 73 212 q 166 684 73 571 q 394 797 258 797 q 627 684 536 797 q 718 392 718 571 q 625 100 718 212 m 394 33 q 561 295 542 33 q 565 407 565 341 q 532 652 565 567 q 394 754 492 754 q 231 538 255 754 q 226 380 226 471 q 239 206 226 289 q 394 33 270 33 z "},"1":{"ha":527,"x_min":104,"x_max":426,"o":"m 106 41 l 197 41 l 197 745 l 108 737 l 108 775 l 334 799 l 334 41 l 424 41 l 424 0 l 106 0 l 106 41 z "},"2":{"ha":702,"x_min":75,"x_max":617,"o":"m 505 116 q 579 201 561 116 l 615 201 l 615 0 l 77 0 l 77 46 l 152 108 q 316 278 241 185 q 457 588 457 448 q 419 718 457 679 q 322 756 380 756 q 170 685 218 756 q 230 639 214 681 q 233 605 233 627 q 211 562 233 583 q 156 542 189 542 q 101 564 123 542 q 79 623 79 586 q 158 745 79 691 q 348 797 237 797 q 532 744 459 797 q 606 586 606 691 q 480 332 606 465 q 340 201 411 255 l 228 116 l 505 116 z "},"3":{"ha":702,"x_min":83,"x_max":635,"o":"m 233 147 q 181 71 233 89 q 255 38 218 42 q 330 33 291 33 q 448 80 407 33 q 490 204 490 127 q 435 332 490 282 q 299 382 380 382 q 241 376 270 382 l 241 422 q 394 476 340 422 q 448 610 448 529 q 313 754 448 754 q 189 714 230 754 q 230 688 214 708 q 245 639 245 667 q 224 590 245 611 q 168 569 203 569 q 115 593 133 569 q 96 642 96 617 q 137 721 96 689 q 227 776 172 756 q 341 797 282 797 q 525 747 461 797 q 588 623 588 698 q 539 493 588 548 q 407 421 490 438 q 571 364 509 415 q 633 231 633 313 q 544 54 633 120 q 314 -12 455 -12 q 152 31 222 -12 q 83 143 83 73 q 105 196 83 174 q 159 218 127 218 q 212 196 191 218 q 233 147 233 174 z "},"4":{"ha":702,"x_min":19,"x_max":679,"o":"m 19 239 l 421 787 l 515 787 l 515 251 l 677 251 l 677 204 l 515 204 l 515 41 l 633 41 l 633 0 l 241 0 l 241 41 l 380 41 l 380 204 l 19 204 l 19 239 m 380 251 l 380 652 l 91 251 l 380 251 z "},"5":{"ha":700,"x_min":85,"x_max":631,"o":"m 492 239 q 445 387 492 334 q 312 440 397 440 q 129 392 226 440 l 158 787 l 610 787 l 583 590 l 542 590 l 538 623 q 492 673 534 666 q 457 677 476 677 l 203 677 l 183 448 q 314 496 233 482 q 363 500 340 500 q 559 433 488 500 q 631 250 631 367 q 542 61 631 133 q 313 -12 453 -12 q 154 31 224 -12 q 85 143 85 73 q 106 196 85 174 q 159 218 127 218 q 213 196 191 218 q 235 139 235 174 q 203 79 235 104 q 177 69 191 73 q 309 31 222 29 q 478 149 440 31 q 492 239 492 189 z "},"6":{"ha":700,"x_min":58,"x_max":654,"o":"m 201 413 q 407 505 280 503 q 573 448 505 505 q 651 267 650 384 q 567 69 652 150 q 356 -12 482 -12 q 145 90 230 -12 q 60 367 60 191 q 149 664 60 542 q 305 781 208 748 q 421 797 353 797 q 545 765 490 797 q 600 683 600 733 q 582 628 600 650 q 530 606 563 606 q 478 628 498 606 q 459 684 459 650 q 488 737 459 718 q 407 760 461 762 q 257 666 309 760 q 201 413 204 573 m 380 453 q 201 347 268 453 q 295 56 206 123 q 363 33 324 33 q 476 91 436 33 q 515 247 515 149 q 438 438 515 395 q 380 453 413 453 z "},"7":{"ha":613,"x_min":46,"x_max":581,"o":"m 216 0 q 226 135 210 62 q 367 494 262 318 q 494 677 430 602 l 212 677 q 143 663 170 677 q 102 613 116 648 q 95 586 100 602 l 89 559 l 46 559 l 81 787 l 579 787 l 579 750 q 394 247 434 527 q 380 97 380 160 q 384 0 380 35 l 216 0 z "},"8":{"ha":702,"x_min":98,"x_max":644,"o":"m 100 191 q 251 386 100 311 q 112 575 112 469 q 192 739 112 681 q 363 797 272 797 l 368 797 q 547 746 480 797 q 613 619 613 694 q 515 461 613 523 q 459 432 488 444 q 580 358 546 390 q 629 294 613 326 q 644 220 644 262 q 566 60 644 129 q 367 -11 488 -10 q 173 44 245 -12 q 100 191 100 100 m 424 448 q 513 610 513 496 q 472 721 513 689 q 368 754 430 754 q 241 687 276 754 q 228 629 228 662 q 285 529 228 575 q 424 448 322 500 m 203 196 q 203 163 203 196 q 254 84 203 129 q 374 39 305 39 q 482 80 444 39 q 521 182 521 122 q 417 297 521 243 l 353 330 q 287 363 320 345 q 231 309 247 334 q 203 196 203 262 z "},"9":{"ha":700,"x_min":58,"x_max":654,"o":"m 509 374 q 305 282 430 284 q 219 296 264 282 q 137 340 174 311 q 60 525 60 407 q 144 720 60 642 q 355 797 228 797 q 567 695 482 797 q 652 420 652 594 q 563 123 652 245 q 309 -12 469 -6 q 167 19 218 -12 q 110 98 116 50 l 110 106 q 128 158 110 137 q 179 179 147 179 q 232 158 212 179 q 253 103 253 137 q 224 52 253 69 q 305 25 251 27 q 454 120 403 25 q 509 374 505 214 m 272 349 q 343 334 299 334 q 433 363 388 334 q 509 440 478 392 q 417 731 503 664 q 349 754 386 754 q 235 699 276 754 q 195 552 195 644 q 272 349 195 395 m 185 41 l 183 41 l 185 41 z "}," ":{"ha":349,"x_min":0,"x_max":0,"o":""},"!":{"ha":436,"x_min":135,"x_max":303,"o":"m 137 766 q 137 796 137 774 q 161 842 137 818 q 218 866 185 866 q 278 842 253 866 q 303 783 303 818 q 299 766 303 774 l 243 230 l 195 230 l 137 766 m 137 73 q 187 149 137 127 q 228 155 201 154 q 278 133 255 156 q 302 73 303 108 q 278 14 301 39 q 219 -10 255 -10 q 160 14 183 -10 q 137 73 137 39 z "},"\"":{"ha":613,"x_min":145,"x_max":478,"o":"m 150 802 q 167 846 147 826 q 216 866 187 866 q 258 853 245 866 q 278 801 284 829 l 233 525 l 193 525 l 150 802 m 343 802 q 360 846 340 826 q 409 866 380 866 q 451 853 438 866 q 473 801 478 829 l 426 525 l 388 525 l 343 802 z "},"#":{"ha":876,"x_min":102,"x_max":775,"o":"m 235 201 l 104 201 l 104 262 l 253 262 l 307 465 l 139 465 l 139 525 l 322 525 l 395 799 l 465 781 l 395 525 l 552 525 l 627 799 l 694 781 l 627 525 l 775 525 l 775 465 l 610 465 l 556 262 l 739 262 l 739 201 l 540 201 l 471 -52 l 403 -35 l 467 201 l 309 201 l 241 -52 l 174 -35 l 235 201 m 482 262 l 536 465 l 380 465 l 326 262 l 482 262 z "},"$":{"ha":702,"x_min":89,"x_max":644,"o":"m 158 60 q 137 0 137 35 l 91 0 l 91 208 l 145 208 q 285 48 172 93 l 305 299 q 106 461 133 363 q 96 532 96 494 q 162 662 96 610 q 332 723 228 714 l 340 822 l 380 822 l 374 725 l 397 723 q 421 721 409 723 l 426 822 l 467 822 l 461 716 q 548 675 517 702 q 559 714 559 693 l 610 714 l 610 525 l 559 525 q 457 664 548 625 l 440 405 q 600 317 556 363 q 644 214 644 272 q 578 54 644 110 q 411 -10 511 -2 l 405 -89 l 365 -89 l 368 -10 q 322 -8 340 -8 l 316 -89 l 278 -89 l 282 2 q 158 60 201 19 m 353 440 l 399 421 l 417 677 q 370 683 392 683 l 353 440 m 330 681 q 210 623 239 671 q 201 579 201 610 q 223 521 201 548 q 314 459 245 494 l 330 681 m 326 39 q 372 33 347 35 l 390 268 l 349 282 q 343 284 345 284 l 326 39 m 413 35 q 534 91 505 42 q 544 138 544 106 q 520 197 544 170 q 428 253 496 224 l 413 35 z "},"%":{"ha":963,"x_min":100,"x_max":864,"o":"m 269 422 q 233 422 269 422 q 149 476 197 422 q 100 611 100 529 q 149 748 100 694 q 270 802 199 802 q 388 749 341 802 q 434 611 434 696 q 388 475 434 527 q 269 422 341 422 m 343 611 q 269 764 343 764 q 195 611 195 764 q 211 502 195 542 q 268 461 228 461 q 343 611 343 461 m 579 41 q 555 68 579 41 q 530 177 530 95 q 580 313 530 260 q 699 367 629 367 q 816 314 770 367 q 862 177 862 262 q 817 41 862 93 q 699 -12 772 -12 q 579 41 627 -12 m 696 27 q 772 177 772 27 q 735 316 772 287 q 696 330 720 328 q 639 290 656 330 q 623 179 623 251 q 639 68 623 108 q 696 27 656 27 m 739 787 l 791 787 l 204 0 l 152 0 l 739 787 z "},"&":{"ha":876,"x_min":73,"x_max":878,"o":"m 650 158 q 808 62 748 62 q 856 73 839 62 l 876 46 q 745 -11 829 -10 q 575 62 660 -12 q 371 -12 494 -12 q 161 47 249 -12 q 73 196 73 106 q 124 340 73 285 q 245 417 176 394 q 158 605 158 521 q 230 737 158 689 q 386 785 301 785 q 526 753 471 785 q 584 667 581 721 q 586 641 586 660 q 565 602 586 623 q 515 581 544 581 q 466 602 488 581 q 444 648 444 623 q 486 718 444 698 q 396 747 453 747 q 310 719 340 747 q 280 640 280 691 q 386 446 280 569 q 613 195 586 224 q 650 395 650 282 l 561 395 l 561 436 l 785 436 l 785 395 l 704 395 q 650 158 700 255 m 278 378 q 199 208 199 318 q 252 88 199 137 q 391 39 305 39 q 540 93 476 39 q 457 181 500 133 l 363 285 q 278 378 299 353 z "},"'":{"ha":438,"x_min":154,"x_max":293,"o":"m 160 802 q 176 846 154 826 q 225 866 197 866 q 268 853 253 866 q 287 801 293 829 l 241 525 l 203 525 l 160 802 z "},"(":{"ha":527,"x_min":141,"x_max":527,"o":"m 262 326 q 527 -258 262 -93 l 502 -287 q 247 -57 351 -214 q 143 313 143 100 q 326 779 143 598 q 502 907 395 849 l 527 880 q 276 476 316 731 q 262 326 262 395 z "},")":{"ha":527,"x_min":0,"x_max":386,"o":"m 0 -258 q 262 293 262 -73 q 0 880 262 712 l 25 907 q 281 677 176 835 q 386 307 386 519 q 201 -160 386 21 q 25 -287 131 -228 l 0 -258 z "},"*":{"ha":611,"x_min":75,"x_max":538,"o":"m 241 465 q 199 434 228 434 q 156 449 170 434 q 143 482 143 465 q 166 529 143 509 l 280 621 l 123 642 q 88 663 100 646 q 75 699 75 679 q 92 734 75 720 q 126 748 108 748 q 160 737 145 748 l 289 652 l 257 814 l 258 812 q 257 832 257 820 q 273 860 257 845 q 309 876 289 876 q 344 860 328 876 q 361 831 361 845 q 359 806 361 818 l 322 650 l 459 737 q 490 745 473 745 q 523 728 507 745 q 538 691 538 712 q 484 640 538 646 l 332 619 l 451 521 q 467 483 467 507 q 451 445 467 459 q 415 430 436 430 q 383 442 394 430 q 365 469 372 453 l 305 602 l 241 465 z "},"+":{"ha":789,"x_min":139,"x_max":652,"o":"m 139 332 l 368 332 l 368 573 l 421 573 l 421 332 l 650 332 l 650 282 l 421 282 l 421 50 l 368 50 l 368 282 l 139 282 l 139 332 z "},",":{"ha":351,"x_min":95,"x_max":264,"o":"m 120 137 q 180 160 145 160 q 239 133 216 160 q 262 48 262 106 q 223 -82 262 -10 q 143 -181 183 -154 l 116 -160 q 174 -48 154 -127 q 179 -2 177 -25 q 121 22 147 -2 q 95 81 95 46 q 120 137 95 116 z "},"-":{"ha":615,"x_min":122,"x_max":496,"o":"m 122 332 l 494 332 l 494 282 l 122 282 l 122 332 z "},".":{"ha":351,"x_min":93,"x_max":258,"o":"m 93 73 q 143 149 93 127 q 184 154 158 154 q 234 131 210 154 q 258 73 258 108 q 234 14 258 39 q 176 -10 210 -10 q 117 14 141 -10 q 93 73 93 39 z "},"/":{"ha":527,"x_min":2,"x_max":525,"o":"m 444 866 l 525 866 l 83 -285 l 2 -285 l 444 866 z "},":":{"ha":351,"x_min":93,"x_max":258,"o":"m 93 73 q 143 149 93 127 q 184 154 158 154 q 234 131 210 154 q 258 73 258 108 q 234 14 258 39 q 176 -10 210 -10 q 117 14 141 -10 q 93 73 93 39 m 93 73 q 143 149 93 127 q 184 154 158 154 q 234 131 210 154 q 258 73 258 108 q 234 14 258 39 q 176 -10 210 -10 q 117 14 141 -10 q 93 73 93 39 m 93 451 q 143 529 93 505 q 184 534 158 534 q 234 511 210 534 q 258 452 258 488 q 234 394 258 417 q 176 370 210 370 q 117 394 141 370 q 93 451 93 417 z "},";":{"ha":351,"x_min":93,"x_max":264,"o":"m 120 137 q 180 160 145 160 q 239 133 216 160 q 262 48 262 106 q 223 -82 262 -10 q 143 -181 183 -154 l 116 -160 q 174 -48 154 -127 q 179 -2 177 -25 q 121 22 147 -2 q 95 81 95 46 q 120 137 95 116 m 93 451 q 143 529 93 505 q 184 534 158 534 q 234 511 210 534 q 258 452 258 488 q 234 394 258 417 q 176 370 210 370 q 117 394 141 370 q 93 451 93 417 z "},"<":{"ha":787,"x_min":174,"x_max":596,"o":"m 174 299 l 596 546 l 596 486 l 241 282 l 596 79 l 596 15 l 174 260 l 174 299 z "},"=":{"ha":789,"x_min":139,"x_max":652,"o":"m 139 401 l 650 401 l 650 349 l 139 349 l 139 401 m 139 228 l 650 228 l 650 174 l 139 174 l 139 228 z "},">":{"ha":787,"x_min":176,"x_max":600,"o":"m 598 299 l 177 546 l 177 486 l 532 282 l 177 79 l 177 15 l 598 260 l 598 299 z "},"?":{"ha":700,"x_min":75,"x_max":627,"o":"m 262 386 q 434 503 370 422 q 498 665 498 583 q 454 789 498 747 q 323 831 411 831 q 187 772 235 831 q 230 743 214 764 q 245 689 245 721 q 222 631 245 656 q 162 606 199 606 q 101 631 125 606 q 77 691 77 656 l 77 696 q 79 700 77 700 q 153 821 79 766 q 342 876 228 876 q 542 816 457 876 q 627 658 627 756 q 488 424 627 515 q 370 376 432 390 l 343 230 l 293 230 l 262 386 m 235 73 q 285 149 235 127 q 327 154 301 154 q 377 131 353 154 q 401 73 401 108 q 377 14 401 39 q 318 -10 353 -10 q 259 14 284 -10 q 235 73 235 39 z "},"@":{"ha":1225,"x_min":102,"x_max":1125,"o":"m 801 -12 q 677 56 691 -12 q 513 -10 606 -10 q 400 55 448 -10 q 353 228 353 120 q 440 449 353 365 q 639 534 527 534 q 735 505 693 534 l 739 525 l 862 525 l 804 112 l 802 106 l 801 79 q 826 37 801 37 q 953 93 891 37 q 1069 314 1038 174 q 1078 416 1078 359 q 1049 529 1078 473 q 970 623 1020 584 q 681 704 862 704 q 412 645 532 704 q 221 477 291 586 q 150 229 150 368 q 217 -2 150 89 q 386 -134 284 -93 q 600 -176 488 -176 q 930 -116 781 -176 l 945 -154 q 610 -216 799 -216 q 280 -123 421 -216 q 127 77 172 -52 q 102 230 102 143 q 191 515 102 390 q 403 687 270 627 q 681 747 536 747 q 997 653 872 747 q 1123 402 1123 559 q 1038 123 1123 245 q 801 -12 943 -12 m 729 461 q 660 486 700 486 q 503 357 544 486 q 484 250 484 301 q 494 166 484 199 q 581 64 515 62 q 681 120 633 64 l 729 461 z "},"A":{"ha":787,"x_min":10,"x_max":779,"o":"m 12 41 l 66 41 l 357 787 l 417 787 l 727 41 l 779 41 l 779 0 l 498 0 l 498 41 l 575 41 l 502 220 l 189 220 l 122 41 l 214 41 l 214 0 l 12 0 l 12 41 m 484 258 l 340 615 l 204 258 l 484 258 z "},"B":{"ha":787,"x_min":54,"x_max":735,"o":"m 54 41 l 143 41 l 143 747 l 54 747 l 54 787 l 444 787 q 623 732 565 787 q 681 583 681 677 q 586 440 681 488 q 529 417 559 424 q 681 353 629 405 q 733 226 733 301 q 657 61 733 122 q 440 0 581 0 l 54 0 l 54 41 m 407 428 q 548 584 548 428 q 521 698 548 664 q 394 747 488 747 l 282 747 l 282 428 l 407 428 m 399 41 q 543 85 494 41 q 592 212 592 129 q 498 374 592 334 q 413 390 461 390 l 282 390 l 282 41 l 399 41 z "},"C":{"ha":787,"x_min":48,"x_max":743,"o":"m 453 41 q 714 164 635 41 l 741 137 q 660 48 721 91 q 448 -12 575 -12 q 157 102 264 -12 q 50 392 50 216 q 157 682 50 567 q 457 797 264 797 q 637 754 559 797 q 673 731 660 745 q 694 787 693 756 l 737 787 l 737 571 l 693 571 q 611 705 677 656 q 467 754 544 754 q 208 390 204 754 q 266 150 208 245 q 453 41 332 41 z "},"D":{"ha":876,"x_min":42,"x_max":829,"o":"m 42 41 l 147 41 l 147 747 l 42 747 l 42 787 l 390 787 q 791 592 700 787 q 828 399 828 511 q 743 143 828 253 q 382 0 631 0 l 42 0 l 42 41 m 376 41 q 608 121 538 41 q 677 395 677 201 l 677 413 q 603 672 675 598 q 382 747 530 747 l 285 747 l 285 41 l 376 41 z "},"E":{"ha":787,"x_min":35,"x_max":714,"o":"m 37 41 l 139 41 l 141 747 l 37 747 l 37 787 l 700 787 l 700 563 l 662 563 q 655 639 660 606 q 635 694 650 671 q 513 747 606 743 l 278 747 l 278 424 l 407 424 q 476 440 449 424 q 503 509 502 455 q 505 532 505 521 l 550 532 l 550 268 l 505 268 q 503 295 505 280 q 476 368 502 353 q 407 384 449 384 l 278 384 l 278 41 l 498 41 q 664 164 633 41 q 673 239 671 201 l 714 239 l 714 0 l 37 0 l 37 41 z "},"F":{"ha":702,"x_min":27,"x_max":671,"o":"m 27 41 l 129 41 l 129 747 l 27 747 l 27 787 l 671 787 l 671 559 l 631 559 q 600 693 625 658 q 473 747 565 741 l 268 747 l 268 409 l 380 409 q 478 473 473 409 q 481 497 480 484 q 484 521 482 509 l 525 521 l 525 251 l 484 251 q 481 279 482 262 q 478 305 480 295 q 380 368 471 368 l 268 368 l 268 41 l 434 41 l 434 0 l 27 0 l 27 41 z "},"G":{"ha":876,"x_min":54,"x_max":855,"o":"m 461 797 q 710 731 637 797 q 733 787 721 745 l 775 787 l 775 571 l 731 571 q 639 709 708 664 q 471 754 569 754 q 231 569 289 754 q 214 309 195 459 q 386 46 239 100 q 473 33 426 33 q 604 59 552 33 q 664 110 656 85 l 664 309 l 529 309 l 529 349 l 853 349 l 853 309 l 787 309 l 787 98 q 666 22 756 56 q 476 -12 575 -12 q 170 105 284 -12 q 56 391 56 222 q 168 675 56 559 q 353 781 241 752 q 461 797 411 797 z "},"H":{"ha":876,"x_min":27,"x_max":851,"o":"m 29 41 l 108 41 l 110 747 l 29 747 l 29 787 l 336 787 l 336 747 l 247 747 l 247 415 l 631 415 l 631 747 l 544 747 l 544 787 l 849 787 l 849 747 l 768 747 l 768 41 l 849 41 l 849 0 l 544 0 l 544 41 l 631 41 l 631 374 l 247 374 l 247 41 l 334 41 l 334 0 l 29 0 l 29 41 z "},"I":{"ha":438,"x_min":48,"x_max":392,"o":"m 48 41 l 150 41 l 150 747 l 48 747 l 48 787 l 390 787 l 390 747 l 289 747 l 289 41 l 390 41 l 390 0 l 48 0 l 48 41 z "},"J":{"ha":438,"x_min":50,"x_max":390,"o":"m 62 -164 q 110 -122 93 -149 q 138 -44 127 -96 q 149 197 149 8 l 149 747 l 52 747 l 52 787 l 390 787 l 390 747 l 287 747 l 287 69 q 229 -110 287 -42 q 83 -201 170 -177 l 62 -164 z "},"K":{"ha":876,"x_min":71,"x_max":874,"o":"m 73 41 l 170 41 l 170 747 l 73 747 l 73 787 l 415 787 l 415 747 l 309 747 l 309 390 l 669 747 l 594 747 l 594 787 l 824 787 l 824 747 l 733 747 l 451 467 l 801 41 l 874 41 l 874 0 l 550 0 l 550 41 l 625 41 l 361 376 l 309 326 l 309 41 l 415 41 l 415 0 l 73 0 l 73 41 z "},"L":{"ha":702,"x_min":35,"x_max":658,"o":"m 37 41 l 147 41 l 147 747 l 62 747 l 62 787 l 376 787 l 376 747 l 285 747 l 285 41 l 444 41 q 606 164 579 41 q 617 239 613 201 l 658 239 l 658 0 l 37 0 l 37 41 z "},"M":{"ha":1053,"x_min":31,"x_max":1032,"o":"m 33 41 l 127 41 l 127 747 l 31 747 l 31 787 l 299 787 l 530 214 l 762 787 l 1020 787 l 1020 747 l 920 747 l 920 41 l 1030 41 l 1030 0 l 689 0 l 689 41 l 781 41 l 783 725 l 498 12 l 476 12 l 174 727 l 174 41 l 266 41 l 266 0 l 33 0 l 33 41 z "},"N":{"ha":876,"x_min":46,"x_max":843,"o":"m 46 41 l 137 41 l 137 747 l 46 747 l 46 787 l 282 787 l 696 168 l 696 747 l 598 747 l 598 787 l 841 787 l 841 747 l 748 747 l 748 0 l 652 0 l 187 683 l 187 41 l 291 41 l 291 0 l 46 0 l 46 41 z "},"O":{"ha":878,"x_min":48,"x_max":829,"o":"m 62 291 q 50 394 50 341 q 95 590 50 498 q 229 740 141 683 q 440 797 316 797 q 735 671 629 797 q 829 392 829 557 q 730 109 829 226 q 442 -10 631 -8 q 224 46 318 -12 q 62 291 98 125 m 625 152 q 664 247 644 187 q 683 372 683 307 q 577 702 683 602 q 440 754 521 754 q 251 640 313 754 q 199 396 197 542 q 253 152 201 251 q 438 33 316 33 q 625 152 559 33 z "},"P":{"ha":700,"x_min":25,"x_max":669,"o":"m 25 41 l 116 41 l 116 747 l 27 747 l 27 787 l 361 787 q 594 721 521 787 q 667 535 667 656 q 590 339 667 415 q 363 262 513 262 l 253 262 l 253 41 l 384 41 l 384 0 l 25 0 l 25 41 m 349 299 q 511 434 473 299 q 525 532 525 480 q 351 747 525 747 l 253 747 l 253 299 l 349 299 z "},"Q":{"ha":878,"x_min":48,"x_max":829,"o":"m 336 -156 q 214 -216 270 -156 l 187 -199 q 338 -66 208 -143 l 438 -12 q 228 44 314 -12 q 95 193 141 100 q 50 394 50 285 q 149 671 50 557 q 443 797 257 797 q 735 671 629 797 q 829 402 829 557 q 752 136 829 247 q 529 -2 675 25 l 428 -62 q 476 -79 453 -69 l 525 -96 q 638 -120 583 -120 q 747 -60 693 -120 l 774 -77 q 709 -172 758 -120 q 602 -224 660 -224 q 530 -213 565 -224 q 430 -179 494 -203 q 336 -156 367 -156 m 625 152 q 664 247 644 187 q 683 372 683 307 q 577 702 683 602 q 440 754 521 754 q 251 640 313 754 q 199 396 197 542 q 253 152 201 251 q 438 33 316 33 q 625 152 559 33 z "},"R":{"ha":787,"x_min":39,"x_max":797,"o":"m 390 787 q 685 588 685 787 q 630 445 685 498 q 484 376 575 392 q 650 253 606 357 q 681 159 667 210 q 704 89 694 108 q 775 41 729 41 l 795 41 l 797 -2 l 723 -2 q 588 25 623 -2 q 535 130 554 52 q 501 252 517 208 q 448 329 484 295 q 355 363 413 363 l 260 363 l 260 41 l 380 41 l 380 0 l 39 0 l 39 41 l 122 41 l 123 747 l 39 747 l 39 787 l 390 787 m 380 397 q 538 581 538 397 q 503 704 538 662 q 370 747 467 747 l 260 747 l 260 397 l 380 397 z "},"S":{"ha":702,"x_min":89,"x_max":644,"o":"m 96 590 q 96 637 96 590 q 176 740 96 683 q 372 797 255 797 q 548 747 490 797 q 559 787 559 764 l 610 787 l 610 596 l 559 596 q 496 713 552 671 q 367 754 440 754 q 247 724 293 754 q 201 642 201 694 q 244 551 201 590 q 421 453 287 511 q 595 351 546 403 q 644 222 644 299 q 568 51 644 114 q 385 -12 492 -12 q 197 33 278 -12 q 158 60 174 46 q 137 0 137 35 l 91 0 l 91 208 l 145 208 q 228 81 164 129 q 393 33 291 33 q 532 95 494 33 q 544 143 544 116 q 504 238 544 199 q 368 313 465 278 q 147 440 203 374 q 96 590 96 498 z "},"T":{"ha":787,"x_min":41,"x_max":748,"o":"m 224 41 l 326 41 l 326 747 l 230 747 q 112 685 145 741 q 81 540 87 640 l 41 540 l 41 787 l 748 787 l 748 540 l 708 540 q 677 685 704 640 q 559 747 642 741 l 465 747 l 465 41 l 567 41 l 567 0 l 224 0 l 224 41 z "},"U":{"ha":791,"x_min":23,"x_max":762,"o":"m 95 747 l 25 747 l 25 787 l 309 787 l 309 747 l 231 747 l 231 270 q 338 48 231 83 q 423 39 372 39 q 520 56 475 39 q 600 126 565 73 q 635 280 635 179 l 635 747 l 556 747 l 556 787 l 760 787 l 760 747 l 687 747 l 687 272 q 612 59 687 129 q 411 -12 538 -12 q 110 170 172 -12 q 93 287 95 218 l 95 747 z "},"V":{"ha":791,"x_min":-8,"x_max":801,"o":"m 62 747 l -8 747 l -8 787 l 322 787 l 322 747 l 224 747 l 451 164 l 664 747 l 569 747 l 569 787 l 799 787 l 799 747 l 721 747 l 434 -12 l 392 -12 l 62 747 z "},"W":{"ha":1140,"x_min":-27,"x_max":1181,"o":"m 50 747 l -25 747 l -25 787 l 307 787 l 307 747 l 204 747 l 397 177 l 600 787 l 637 787 l 860 179 l 1046 747 l 947 747 l 947 787 l 1179 787 l 1179 747 l 1100 747 l 845 -12 l 797 -12 l 575 559 l 382 -12 l 336 -12 l 50 747 z "},"X":{"ha":789,"x_min":8,"x_max":783,"o":"m 8 41 l 96 41 l 336 363 l 83 747 l 8 747 l 8 787 l 336 787 l 336 747 l 239 747 l 426 467 l 635 747 l 548 747 l 548 787 l 779 787 l 779 747 l 691 747 l 453 424 l 714 41 l 783 41 l 783 0 l 457 0 l 457 41 l 552 41 l 363 322 l 154 41 l 249 41 l 249 0 l 8 0 l 8 41 z "},"Y":{"ha":791,"x_min":4,"x_max":783,"o":"m 231 41 l 332 41 l 332 305 l 69 747 l 6 747 l 6 787 l 336 787 l 336 747 l 231 747 l 444 376 l 650 747 l 556 747 l 556 787 l 783 787 l 783 747 l 706 747 l 471 336 l 471 41 l 575 41 l 575 0 l 231 0 l 231 41 z "},"Z":{"ha":789,"x_min":71,"x_max":727,"o":"m 71 62 l 561 747 l 332 747 q 198 705 231 747 q 156 561 164 664 l 110 561 l 110 787 l 708 787 l 708 727 l 224 41 l 521 41 q 652 93 619 41 q 679 224 677 129 l 727 224 l 727 0 l 71 0 l 71 62 z "},"[":{"ha":527,"x_min":176,"x_max":417,"o":"m 176 909 l 417 909 l 417 868 l 280 868 l 280 -249 l 417 -249 l 417 -287 l 176 -287 l 176 909 z "},"\\":{"ha":527,"x_min":2,"x_max":525,"o":"m 83 866 l 2 866 l 444 -285 l 525 -285 l 83 866 z "},"]":{"ha":527,"x_min":110,"x_max":351,"o":"m 351 909 l 110 909 l 110 868 l 247 868 l 247 -249 l 110 -249 l 110 -287 l 351 -287 l 351 909 z "},"^":{"ha":876,"x_min":176,"x_max":702,"o":"m 421 785 l 457 785 l 700 280 l 640 280 l 438 714 l 235 280 l 176 280 l 421 785 z "},"_":{"ha":702,"x_min":-6,"x_max":710,"o":"m 710 -106 l 710 -172 l -6 -172 l -6 -106 l 710 -106 z "},"`":{"ha":876,"x_min":210,"x_max":442,"o":"m 241 721 q 214 774 212 741 q 235 821 216 806 q 276 831 255 835 q 326 799 311 828 l 440 627 l 424 610 l 241 721 z "},"a":{"ha":613,"x_min":46,"x_max":604,"o":"m 181 467 q 224 407 218 457 q 203 359 224 378 q 152 340 181 340 q 103 359 123 340 q 83 405 83 378 q 95 449 83 432 q 199 521 123 498 q 289 534 247 534 q 460 487 405 534 q 515 357 515 440 l 515 83 q 536 40 515 39 q 577 66 557 41 l 604 42 q 490 -10 569 -10 q 432 8 461 -10 q 394 58 403 25 q 233 -12 334 -12 q 102 31 158 -12 q 46 143 46 73 q 100 251 46 212 q 240 289 154 289 q 382 249 326 289 l 382 370 q 367 455 382 432 q 293 494 341 494 q 181 467 208 494 m 272 41 q 386 100 338 41 l 386 203 q 288 245 341 245 q 209 221 235 245 q 183 143 183 197 q 241 46 183 62 q 272 41 257 41 z "},"b":{"ha":700,"x_min":31,"x_max":658,"o":"m 241 471 q 424 534 301 534 q 589 466 521 534 q 658 267 658 397 q 584 63 658 137 q 401 -12 509 -12 q 274 17 332 -12 q 241 39 257 25 l 241 0 l 31 0 l 31 41 l 108 41 l 108 826 l 31 826 l 31 866 l 241 866 l 241 471 m 380 35 q 513 260 513 35 q 442 473 513 430 q 377 487 417 488 q 302 465 338 486 q 241 407 266 444 l 241 93 q 343 39 282 52 q 380 35 363 35 z "},"c":{"ha":527,"x_min":35,"x_max":513,"o":"m 513 73 q 311 -12 448 -10 q 209 8 262 -12 q 118 62 156 27 q 35 263 35 137 q 116 462 35 390 q 322 534 197 534 q 453 503 394 534 q 513 415 513 471 q 494 364 513 384 q 445 343 475 343 q 395 361 415 343 q 376 407 376 378 q 413 471 376 453 q 324 496 374 496 q 177 264 176 496 q 266 54 177 102 q 336 39 295 39 q 486 98 428 39 l 513 73 z "},"d":{"ha":700,"x_min":60,"x_max":687,"o":"m 475 54 q 295 -12 415 -10 q 210 5 255 -12 q 133 54 166 21 q 62 257 62 127 q 136 460 62 386 q 316 534 210 534 q 444 507 386 534 q 475 488 461 500 l 475 826 l 368 826 l 368 866 l 610 866 l 610 41 l 687 41 l 687 0 l 475 0 l 475 54 m 475 434 q 340 490 421 490 q 204 264 204 490 q 278 52 204 96 q 342 39 305 39 q 416 59 380 39 q 475 116 451 79 l 475 434 z "},"e":{"ha":611,"x_min":48,"x_max":565,"o":"m 552 91 q 322 -12 471 -10 q 218 10 272 -12 q 127 68 164 31 q 49 265 48 145 q 128 460 50 386 q 326 534 206 534 q 550 386 503 534 q 565 280 565 340 l 191 280 l 191 264 q 282 56 191 106 q 353 39 313 39 q 525 116 448 39 l 552 91 m 424 322 q 400 448 424 403 q 322 492 376 492 q 195 322 208 492 l 424 322 z "},"f":{"ha":438,"x_min":64,"x_max":500,"o":"m 370 737 q 424 802 370 795 q 401 825 421 816 q 359 833 382 833 q 297 796 313 833 q 282 683 282 758 l 282 527 l 386 527 l 397 486 l 282 486 l 282 41 l 390 41 l 390 0 l 66 0 l 66 41 l 147 41 l 147 486 l 66 486 l 66 527 l 147 527 l 147 656 q 201 819 147 764 q 334 874 255 874 q 455 838 413 874 q 498 753 498 802 q 457 687 498 704 q 426 683 446 683 q 389 698 407 683 q 370 737 370 714 z "},"g":{"ha":611,"x_min":48,"x_max":600,"o":"m 62 58 q 154 189 62 141 q 73 333 73 243 q 141 478 73 422 q 297 534 208 534 q 448 496 386 534 q 494 515 478 502 q 461 563 461 532 q 480 613 461 594 q 526 633 500 633 q 571 615 552 633 q 590 565 590 598 q 556 503 590 532 q 484 467 521 475 q 541 332 540 411 q 474 200 542 253 q 305 147 405 147 q 187 170 239 147 q 133 110 133 147 q 208 68 133 68 l 353 68 q 596 -93 598 68 q 515 -238 596 -189 q 314 -287 434 -287 q 73 -216 135 -287 q 50 -152 50 -191 q 81 -80 50 -114 q 160 -35 112 -46 q 91 2 118 -27 q 62 58 62 29 m 201 336 q 305 189 201 189 q 416 340 415 189 q 307 492 417 492 q 204 397 220 492 q 201 336 201 368 m 150 -147 q 320 -245 150 -245 q 454 -214 407 -245 q 502 -137 502 -183 q 440 -48 502 -73 q 386 -41 419 -41 l 230 -41 q 173 -78 195 -50 q 150 -147 150 -106 z "},"h":{"ha":700,"x_min":21,"x_max":696,"o":"m 29 41 l 112 41 l 112 826 l 23 826 l 23 866 l 245 866 l 245 461 q 422 534 322 534 q 544 500 492 534 q 611 357 611 453 l 611 41 l 694 41 l 694 0 l 394 0 l 394 41 l 478 41 l 478 367 q 466 448 478 426 q 437 478 453 471 q 390 486 421 486 q 318 467 359 486 q 245 407 278 448 l 245 41 l 328 41 l 328 0 l 29 0 l 29 41 z "},"i":{"ha":351,"x_min":31,"x_max":336,"o":"m 233 652 q 223 641 233 652 q 183 631 212 631 q 133 651 154 631 q 112 701 112 671 q 132 752 112 731 q 181 774 152 774 q 249 731 230 774 q 255 695 255 718 q 233 652 255 673 m 31 41 l 116 41 l 116 486 l 39 486 l 39 527 l 251 527 l 251 41 l 336 41 l 336 0 l 31 0 l 31 41 z "},"j":{"ha":351,"x_min":31,"x_max":262,"o":"m 239 651 q 229 641 239 651 q 189 631 218 631 q 140 651 160 631 q 120 701 120 671 q 140 752 120 731 q 189 774 160 774 q 255 731 235 774 q 260 694 260 718 q 239 651 260 671 m 120 486 l 44 486 l 44 527 l 257 527 l 257 -23 q 143 -266 257 -210 q 42 -287 98 -287 l 33 -249 q 79 -236 62 -249 q 108 -185 96 -224 q 120 4 120 -147 l 120 486 z "},"k":{"ha":702,"x_min":29,"x_max":689,"o":"m 29 41 l 110 41 l 110 826 l 29 826 l 29 866 l 243 866 l 243 266 l 502 486 l 407 486 l 407 527 l 637 527 l 637 486 l 569 486 l 403 347 l 617 41 l 687 41 l 687 0 l 392 0 l 392 41 l 465 41 l 309 268 l 243 214 l 243 41 l 318 41 l 318 0 l 29 0 l 29 41 z "},"l":{"ha":351,"x_min":27,"x_max":334,"o":"m 31 41 l 110 41 l 110 826 l 27 826 l 27 866 l 247 866 l 247 41 l 334 41 l 334 0 l 31 0 l 31 41 z "},"m":{"ha":1047,"x_min":29,"x_max":1038,"o":"m 407 534 q 579 446 530 534 q 764 534 660 534 q 885 500 833 534 q 953 357 953 453 l 953 41 l 1038 41 l 1038 0 l 731 0 l 731 41 l 820 41 l 820 370 q 806 449 820 428 q 777 478 793 471 q 728 486 762 486 q 657 463 694 486 q 594 403 619 440 q 598 363 598 380 l 598 41 l 683 41 l 683 0 l 380 0 l 380 41 l 465 41 l 465 376 q 451 449 465 430 q 386 486 430 486 q 249 415 307 486 l 249 41 l 332 41 l 332 0 l 31 0 l 31 41 l 116 41 l 116 488 l 29 488 l 29 527 l 249 527 l 249 467 q 407 534 322 534 z "},"n":{"ha":700,"x_min":27,"x_max":696,"o":"m 397 486 q 245 407 314 486 l 245 41 l 340 41 l 340 0 l 29 0 l 29 41 l 112 41 l 112 486 l 29 486 l 29 527 l 245 527 l 245 461 q 422 534 322 534 q 544 500 492 534 q 613 357 613 453 l 613 41 l 694 41 l 694 0 l 386 0 l 386 41 l 478 41 l 478 367 q 467 448 478 426 q 397 486 444 486 z "},"o":{"ha":611,"x_min":35,"x_max":577,"o":"m 37 264 q 37 325 37 264 q 114 460 37 386 q 308 534 191 534 q 501 460 424 534 q 577 264 577 386 q 502 66 577 143 q 309 -12 426 -12 q 114 66 191 -12 q 37 264 37 143 m 307 33 q 434 264 440 33 q 407 432 434 372 q 307 492 380 492 q 185 355 203 492 q 179 264 179 313 q 204 100 179 154 q 307 33 235 33 z "},"p":{"ha":700,"x_min":25,"x_max":658,"o":"m 241 471 q 424 534 301 534 q 589 466 523 534 q 657 267 656 397 q 583 63 658 137 q 401 -12 507 -12 q 274 17 332 -12 q 241 39 257 25 l 241 -249 l 336 -249 l 336 -287 l 31 -287 l 31 -249 l 108 -249 l 108 484 l 25 484 l 25 527 l 241 527 l 241 471 m 380 35 q 513 260 513 35 q 440 473 513 430 q 376 487 415 488 q 301 465 338 486 q 241 407 264 444 l 241 93 q 343 39 282 52 q 380 35 363 35 z "},"q":{"ha":700,"x_min":54,"x_max":681,"o":"m 54 257 q 54 322 54 257 q 128 461 54 388 q 307 534 203 534 q 469 488 411 534 l 469 527 l 677 527 l 677 486 l 602 486 l 602 -249 l 679 -249 l 679 -287 l 376 -287 l 376 -249 l 469 -249 l 469 54 q 285 -12 407 -10 q 203 5 247 -12 q 125 54 158 21 q 54 257 54 125 m 332 490 q 197 264 199 490 q 270 52 197 96 q 334 39 295 39 q 408 59 372 39 q 469 116 444 79 l 469 434 q 367 486 430 475 q 332 490 349 490 z "},"r":{"ha":527,"x_min":44,"x_max":513,"o":"m 257 455 q 434 534 340 534 q 490 514 467 534 q 513 462 513 494 q 493 410 513 430 q 444 390 473 390 q 396 410 417 390 q 376 450 376 430 q 380 482 376 471 q 257 405 305 459 l 257 39 l 368 39 l 368 0 l 44 0 l 44 39 l 122 39 l 122 486 l 44 486 l 44 527 l 257 527 l 257 455 z "},"s":{"ha":527,"x_min":68,"x_max":486,"o":"m 293 33 q 397 102 390 33 q 362 149 397 127 q 245 201 326 172 q 119 275 164 230 q 73 386 73 320 q 132 493 73 451 q 267 534 191 534 q 390 498 343 534 q 417 534 417 503 l 455 534 l 455 390 l 411 390 q 365 467 403 440 q 275 494 326 494 q 197 474 224 494 q 170 425 170 453 q 201 373 170 397 q 289 329 231 349 q 380 295 347 309 q 486 147 486 243 q 378 8 486 50 q 291 -12 336 -12 q 137 39 201 -10 q 120 0 122 27 l 69 0 l 71 154 l 120 154 q 169 74 120 116 q 293 33 218 33 z "},"t":{"ha":436,"x_min":29,"x_max":421,"o":"m 228 123 q 299 35 228 35 q 394 79 351 35 l 421 56 q 320 -6 384 12 q 276 -12 299 -12 q 93 160 93 -12 l 93 486 l 29 486 l 29 527 l 93 527 l 93 683 q 228 718 160 683 l 228 527 l 397 527 l 397 486 l 228 486 l 228 123 z "},"u":{"ha":702,"x_min":25,"x_max":658,"o":"m 457 50 q 309 -12 388 -12 q 174 21 230 -12 q 98 172 98 66 l 98 486 l 25 486 l 25 527 l 231 527 l 231 147 q 332 39 231 39 q 457 102 401 39 l 457 486 l 367 486 l 367 527 l 588 527 l 588 41 l 656 41 l 656 0 l 457 0 l 457 50 z "},"v":{"ha":613,"x_min":0,"x_max":617,"o":"m 52 486 l 0 486 l 0 527 l 270 527 l 270 486 l 204 486 l 359 133 l 498 486 l 428 486 l 428 527 l 615 527 l 615 486 l 548 486 l 343 -12 l 289 -12 l 52 486 z "},"w":{"ha":876,"x_min":0,"x_max":895,"o":"m 35 486 l 0 486 l 0 527 l 243 527 l 243 486 l 181 486 l 324 162 l 471 527 l 505 527 l 667 164 l 791 486 l 718 486 l 718 527 l 893 527 l 893 486 l 837 486 l 650 -12 l 610 -12 l 444 345 l 299 -12 l 258 -12 l 35 486 z "},"x":{"ha":613,"x_min":15,"x_max":608,"o":"m 25 41 l 96 41 l 258 231 l 68 486 l 15 486 l 15 527 l 289 527 l 289 486 l 218 486 l 340 326 l 471 486 l 399 486 l 399 527 l 586 527 l 586 486 l 529 486 l 365 291 l 556 41 l 608 41 l 608 0 l 336 0 l 336 41 l 401 41 l 284 197 l 154 41 l 224 41 l 224 0 l 25 0 l 25 41 z "},"y":{"ha":613,"x_min":-4,"x_max":602,"o":"m 35 -210 q 73 -147 35 -164 q 111 -141 87 -141 q 152 -159 135 -141 q 170 -199 170 -177 q 156 -237 170 -220 q 243 -123 191 -233 l 289 -12 l 52 486 l -2 486 l -2 527 l 276 527 l 276 486 l 204 486 l 359 133 l 498 486 l 407 486 l 407 527 l 602 527 l 602 486 l 548 486 l 343 -12 l 282 -150 q 211 -256 245 -224 q 134 -287 177 -287 q 63 -264 91 -287 q 35 -210 35 -241 z "},"z":{"ha":527,"x_min":41,"x_max":496,"o":"m 42 41 l 338 488 l 224 488 q 132 456 158 488 q 95 359 106 424 l 58 359 l 58 527 l 484 527 l 484 486 l 191 39 l 334 39 q 434 73 407 39 q 459 164 451 98 l 496 164 l 496 0 l 42 0 l 42 41 z "},"{":{"ha":527,"x_min":71,"x_max":467,"o":"m 467 876 q 324 694 324 845 q 326 642 324 667 l 330 592 q 336 498 336 519 q 170 311 336 330 l 170 307 q 336 106 336 285 q 334 66 336 89 l 326 -29 q 324 -77 322 -52 q 467 -255 324 -224 l 457 -287 q 262 -191 326 -268 q 214 -46 214 -129 l 226 135 q 201 237 226 206 q 73 291 168 282 l 73 326 q 222 417 206 341 q 226 469 226 440 l 214 666 q 338 870 214 801 q 457 907 386 895 l 467 876 z "},"|":{"ha":262,"x_min":98,"x_max":166,"o":"m 98 866 l 164 866 l 164 -154 l 98 -154 l 98 866 z "},"}":{"ha":527,"x_min":60,"x_max":455,"o":"m 62 876 q 203 694 203 845 q 201 642 203 667 l 197 592 q 191 498 191 519 q 359 311 191 330 l 359 307 q 191 106 191 285 q 193 66 191 89 l 201 -29 q 203 -77 204 -52 q 62 -255 203 -224 l 69 -287 q 262 -191 201 -268 q 313 -46 313 -129 l 301 135 q 326 237 301 206 q 453 291 359 282 l 453 326 q 305 417 320 341 q 301 469 301 440 l 313 666 q 189 870 313 801 q 69 907 143 895 l 62 876 z "},"~":{"ha":635,"x_min":93,"x_max":527,"o":"m 428 403 q 502 449 471 403 l 525 438 q 392 316 469 316 q 306 335 351 316 q 236 361 260 353 q 191 368 212 368 q 151 354 170 368 q 116 320 133 340 l 93 336 q 218 453 158 453 q 332 428 264 453 l 378 413 q 428 403 401 403 z "}," ":{"ha":349,"x_min":0,"x_max":0,"o":""},"¡":{"ha":436,"x_min":135,"x_max":303,"o":"m 299 37 q 302 7 301 29 q 278 -40 303 -15 q 218 -64 253 -64 q 161 -40 185 -64 q 137 19 137 -15 q 137 37 137 29 l 195 573 l 243 573 l 299 37 m 301 731 q 251 654 301 675 q 218 648 235 646 q 160 671 183 648 q 137 730 137 694 q 160 789 137 766 q 219 812 183 812 q 278 789 255 812 q 301 731 301 766 z "},"¢":{"ha":613,"x_min":83,"x_max":563,"o":"m 463 471 q 374 492 432 492 q 226 264 226 492 q 314 54 226 102 q 386 39 345 39 q 536 98 478 39 l 563 73 q 440 -2 521 19 q 390 -12 409 -12 l 367 -12 q 359 -10 363 -12 l 349 -131 l 309 -131 l 318 -8 q 149 80 214 8 q 83 271 83 152 q 162 461 83 390 q 365 534 241 532 l 376 646 l 417 646 l 405 532 q 548 461 507 521 q 561 412 561 440 q 542 362 561 384 q 494 340 523 340 q 445 359 465 340 q 424 407 424 378 q 463 471 424 451 z "},"£":{"ha":702,"x_min":19,"x_max":644,"o":"m 311 309 l 311 297 q 299 221 311 247 q 257 170 287 195 q 320 154 289 166 q 378 129 320 154 q 496 96 451 96 q 594 164 540 96 l 610 187 l 642 162 l 623 127 q 463 -12 542 -12 q 384 1 421 -12 q 311 28 347 14 q 239 55 274 42 q 178 68 204 68 q 137 62 152 68 q 83 15 112 46 l 60 -12 l 29 12 q 93 85 48 42 q 177 287 183 191 l 174 309 l 19 309 l 25 349 l 170 349 l 156 438 l 31 438 l 35 476 l 150 476 q 166 673 135 606 q 216 741 185 714 q 371 795 278 795 q 516 755 465 795 q 567 660 567 716 q 548 610 567 629 q 503 590 529 590 q 458 607 476 590 q 440 651 440 623 q 456 695 440 679 q 494 714 473 712 q 459 743 486 731 q 395 754 432 754 q 282 577 278 754 q 289 476 282 544 l 461 476 l 457 438 l 295 438 l 303 394 q 309 349 307 370 l 451 349 l 448 309 l 311 309 z "},"¤":{"ha":702,"x_min":106,"x_max":598,"o":"m 465 135 q 351 100 413 100 q 237 137 289 100 l 158 58 l 106 110 l 185 187 q 146 310 147 243 q 185 432 145 376 l 108 511 l 160 561 l 239 482 q 352 515 291 515 q 467 482 413 515 l 546 561 l 596 511 l 519 432 q 559 309 559 376 q 519 185 559 241 l 596 108 l 544 56 l 465 135 m 353 448 q 257 406 295 448 q 218 309 218 365 q 257 212 218 253 q 353 172 295 172 q 448 212 409 172 q 488 310 488 253 q 448 407 488 367 q 353 448 409 448 z "},"¥":{"ha":791,"x_min":4,"x_max":783,"o":"m 123 214 l 334 214 l 336 303 l 332 309 l 131 309 l 135 349 l 307 349 l 69 747 l 6 747 l 6 787 l 336 787 l 336 747 l 231 747 l 444 376 l 650 747 l 556 747 l 556 787 l 783 787 l 783 747 l 706 747 l 480 349 l 669 349 l 667 309 l 473 309 l 473 214 l 660 214 l 656 174 l 473 174 l 473 41 l 550 41 l 550 0 l 258 0 l 258 41 l 334 41 l 334 174 l 122 174 l 123 214 z "},"¦":{"ha":262,"x_min":98,"x_max":168,"o":"m 100 866 l 166 866 l 166 421 l 100 421 l 100 866 m 98 272 l 164 272 l 164 -154 l 98 -154 l 98 272 z "},"§":{"ha":702,"x_min":52,"x_max":629,"o":"m 143 -106 q 120 -164 120 -129 l 73 -164 l 73 46 l 127 46 q 209 -84 147 -35 q 373 -133 272 -133 q 515 -79 475 -133 q 529 -37 529 -62 q 490 45 529 12 q 353 112 451 79 q 134 224 189 166 q 79 358 79 282 q 128 481 79 434 q 260 546 177 529 q 89 702 114 610 q 162 910 52 835 q 356 962 241 961 q 530 912 471 963 q 544 953 542 930 l 592 953 l 592 760 l 542 760 q 480 879 534 837 q 353 920 426 920 q 231 895 280 920 q 183 823 183 870 q 226 740 183 775 q 403 650 268 704 q 579 558 529 606 q 629 434 629 511 q 575 304 629 357 q 432 237 521 251 q 585 151 542 197 q 629 46 629 106 q 552 -117 629 -60 q 365 -176 475 -174 q 143 -106 220 -176 m 365 270 q 515 324 476 270 q 529 365 529 341 q 490 446 529 413 q 336 517 451 478 q 227 491 270 515 q 183 423 183 467 q 217 346 183 380 q 351 270 251 313 l 365 270 z "},"¨":{"ha":523,"x_min":81,"x_max":444,"o":"m 444 708 q 403 646 444 660 q 372 640 392 640 q 335 658 353 640 q 316 701 316 675 q 335 746 316 727 q 380 764 353 764 q 425 746 407 764 q 444 708 444 727 m 208 708 q 170 646 208 660 q 138 640 156 640 q 100 658 120 640 q 81 701 81 675 q 100 746 81 727 q 146 764 120 764 q 190 746 172 764 q 208 708 208 727 z "},"©":{"ha":1152,"x_min":79,"x_max":1094,"o":"m 1092 264 q 1024 12 1092 127 q 839 -173 957 -104 q 584 -241 721 -241 q 332 -173 448 -241 q 148 12 216 -104 q 79 265 79 127 q 148 519 79 403 q 332 703 216 635 q 584 772 448 772 q 839 704 721 772 q 1024 520 957 637 q 1092 264 1092 403 m 133 262 q 264 -62 133 73 q 586 -199 392 -199 q 814 -137 712 -199 q 978 31 916 -75 q 1038 263 1038 137 q 977 497 1038 390 q 814 666 916 604 q 586 729 712 729 q 358 666 461 729 q 194 496 255 602 q 133 262 133 390 m 619 534 q 752 486 700 534 q 766 527 764 502 l 812 527 l 812 370 l 766 370 q 718 443 756 411 q 634 475 679 475 q 561 457 588 475 q 481 265 482 409 q 557 69 480 122 q 630 51 586 52 q 711 77 673 50 q 764 139 748 104 l 808 112 q 689 2 781 35 q 599 -10 656 -10 q 488 12 542 -10 q 397 69 434 33 q 322 262 322 147 q 398 456 322 378 q 619 534 475 534 z "},"ª":{"ha":527,"x_min":102,"x_max":482,"o":"m 480 567 q 404 534 455 534 q 334 573 353 534 q 231 534 291 534 q 137 561 170 534 q 104 629 104 588 q 141 695 104 669 q 231 721 177 721 q 326 700 285 721 l 326 772 q 313 820 326 808 q 254 841 289 841 q 195 831 218 841 q 222 799 222 822 q 206 762 222 775 q 169 748 191 748 q 131 761 147 748 q 116 793 116 774 q 162 850 116 828 q 275 872 208 872 q 381 843 341 872 q 421 764 421 814 l 421 596 q 434 572 421 571 q 459 584 448 573 l 480 567 m 258 687 q 201 629 201 687 q 239 575 201 586 q 258 569 249 569 q 326 610 295 569 l 326 660 q 258 687 295 687 z "},"«":{"ha":876,"x_min":112,"x_max":766,"o":"m 112 278 q 322 413 262 367 q 417 492 382 459 l 442 467 q 349 353 397 405 l 258 257 l 349 160 q 442 46 397 108 l 417 21 q 195 183 330 96 l 112 235 l 112 278 m 436 278 q 646 413 586 367 q 741 492 706 459 l 766 467 q 673 353 721 405 l 583 257 l 673 160 q 766 46 721 108 l 741 21 q 519 183 654 96 l 436 235 l 436 278 z "},"¬":{"ha":789,"x_min":158,"x_max":608,"o":"m 160 332 l 606 332 l 606 116 l 552 116 l 552 282 l 160 282 l 160 332 z "},"­":{"ha":631,"x_min":0,"x_max":0,"o":""},"®":{"ha":870,"x_min":19,"x_max":847,"o":"m 845 588 q 790 380 845 475 q 640 230 735 285 q 434 174 546 174 q 227 230 322 174 q 75 381 131 285 q 19 588 19 476 q 75 799 19 702 q 322 992 160 945 q 432 1007 376 1007 q 640 950 546 1007 q 790 798 735 893 q 845 588 845 702 m 69 588 q 176 325 69 434 q 434 216 282 216 q 692 325 586 216 q 797 588 797 434 q 691 853 797 743 q 530 949 625 920 q 432 963 484 963 q 251 912 334 963 q 119 776 168 862 q 69 588 69 691 m 619 685 q 515 569 619 598 q 600 480 583 552 q 622 428 610 440 q 652 417 635 417 l 666 417 l 666 378 l 606 378 q 542 389 556 378 q 524 414 529 399 q 511 461 519 428 q 405 554 488 552 l 347 554 l 347 419 l 422 419 l 422 380 l 208 380 l 208 419 l 258 419 l 258 772 l 216 772 l 216 812 l 424 812 q 608 737 571 812 q 619 685 619 714 m 421 592 q 502 618 478 592 q 525 669 525 644 q 502 747 525 721 q 417 772 478 772 l 347 772 l 347 592 l 421 592 z "},"¯":{"ha":876,"x_min":258,"x_max":600,"o":"m 258 727 l 598 727 l 598 664 l 258 664 l 258 727 z "},"°":{"ha":527,"x_min":85,"x_max":442,"o":"m 265 527 q 228 527 265 527 q 139 575 191 527 q 87 699 87 623 q 139 824 87 775 q 265 872 191 872 q 391 824 340 872 q 442 699 442 775 q 391 575 442 623 q 265 527 340 527 m 264 579 q 343 615 316 579 q 370 700 370 652 q 314 808 370 777 q 264 820 295 820 q 184 784 210 820 q 158 700 158 748 q 214 590 158 621 q 264 579 235 579 z "},"±":{"ha":789,"x_min":139,"x_max":652,"o":"m 139 52 l 368 52 l 368 282 l 139 282 l 139 332 l 368 332 l 368 573 l 421 573 l 421 332 l 650 332 l 650 282 l 421 282 l 421 52 l 650 52 l 650 0 l 139 0 l 139 52 z "},"²":{"ha":438,"x_min":75,"x_max":370,"o":"m 260 764 q 183 839 260 839 q 145 829 164 839 q 170 793 170 820 q 118 747 170 748 q 87 761 98 747 q 75 795 75 775 q 117 851 75 829 q 197 872 158 872 q 351 758 351 872 q 249 619 351 691 q 170 567 214 594 l 313 567 q 343 602 336 567 l 370 602 l 370 496 l 79 496 l 79 525 l 141 575 q 260 764 260 675 z "},"³":{"ha":438,"x_min":62,"x_max":368,"o":"m 147 694 q 260 791 260 700 q 242 825 260 810 q 194 839 224 839 q 147 829 164 839 q 168 794 168 822 q 143 752 168 766 q 117 748 133 748 q 87 764 100 748 q 73 799 73 779 q 114 854 73 835 q 217 872 154 872 q 313 848 280 872 q 345 791 345 824 q 268 696 345 727 q 338 670 309 694 q 367 604 367 646 q 324 527 367 561 q 198 492 282 492 q 75 534 114 492 q 62 568 62 550 q 74 601 62 586 q 106 615 87 615 q 154 565 154 615 q 137 532 154 544 q 193 525 160 525 q 254 549 226 525 q 282 606 282 573 q 228 667 282 650 q 147 667 197 677 l 147 694 z "},"´":{"ha":876,"x_min":270,"x_max":500,"o":"m 272 627 l 386 799 q 431 831 405 828 q 476 821 457 835 q 498 785 496 806 q 471 721 500 743 l 287 610 l 272 627 z "},"µ":{"ha":702,"x_min":95,"x_max":652,"o":"m 426 50 q 283 -11 363 -10 q 150 46 203 -12 q 228 -199 179 -83 q 214 -263 239 -239 q 163 -287 189 -287 q 116 -272 137 -287 q 95 -228 95 -257 l 95 527 l 228 527 l 228 152 q 316 39 228 39 q 424 100 372 39 l 424 527 l 557 527 l 557 164 q 610 58 557 58 q 639 66 619 58 l 650 35 q 506 -10 575 -10 q 426 50 438 -10 z "},"¶":{"ha":876,"x_min":112,"x_max":783,"o":"m 411 343 q 193 415 272 343 q 114 609 114 486 q 197 799 114 731 q 413 866 280 866 l 781 866 l 781 826 l 694 826 l 694 -154 l 611 -154 l 611 826 l 494 826 l 494 -154 l 411 -154 l 411 343 z "},"·":{"ha":351,"x_min":93,"x_max":258,"o":"m 258 394 q 258 377 258 394 q 234 336 258 359 q 176 313 210 313 q 117 336 141 313 q 93 394 93 359 q 143 471 93 449 q 176 476 158 478 q 234 453 210 476 q 258 394 258 430 z "},"¸":{"ha":876,"x_min":197,"x_max":438,"o":"m 287 -66 q 307 -66 297 -66 q 424 -106 394 -66 q 438 -147 438 -123 q 400 -224 438 -193 q 307 -271 363 -255 q 203 -287 251 -287 l 199 -251 q 332 -206 293 -243 q 345 -170 345 -191 q 272 -127 345 -127 l 249 -127 q 226 -129 237 -127 l 255 8 l 301 8 l 287 -66 z "},"¹":{"ha":438,"x_min":104,"x_max":332,"o":"m 106 525 l 166 525 l 166 831 l 108 833 l 108 860 l 262 866 l 262 525 l 332 525 l 332 496 l 106 496 l 106 525 z "},"º":{"ha":527,"x_min":77,"x_max":451,"o":"m 265 534 q 224 534 265 534 q 131 583 183 534 q 79 705 79 631 q 132 826 79 779 q 264 872 185 872 q 397 826 343 872 q 451 705 451 779 q 399 583 451 631 q 265 534 347 534 m 264 567 q 303 567 264 567 q 341 703 341 567 q 264 839 341 839 q 187 703 187 839 q 264 567 187 567 z "},"»":{"ha":872,"x_min":112,"x_max":764,"o":"m 440 278 q 230 413 289 367 q 135 492 170 459 l 112 467 q 203 353 156 405 l 293 257 l 203 160 q 112 46 154 108 l 135 21 q 242 103 172 52 q 359 183 313 154 l 440 235 l 440 278 m 764 278 q 554 413 613 367 q 457 492 494 459 l 434 467 q 525 353 478 405 l 615 257 l 525 160 q 434 46 476 108 l 457 21 q 681 183 546 96 l 764 235 l 764 278 z "},"¼":{"ha":880,"x_min":118,"x_max":793,"o":"m 459 123 l 640 370 l 721 370 l 721 123 l 793 123 l 775 89 l 721 89 l 721 29 l 783 29 l 783 0 l 557 0 l 557 29 l 627 29 l 627 89 l 459 89 l 459 123 m 627 123 l 627 293 l 502 123 l 627 123 m 120 457 l 179 457 l 179 764 l 122 764 l 122 793 l 276 797 l 276 457 l 343 457 l 343 426 l 120 426 l 120 457 m 708 787 l 758 787 l 176 0 l 123 0 l 708 787 z "},"½":{"ha":876,"x_min":108,"x_max":801,"o":"m 110 457 l 170 457 l 170 764 l 112 766 l 112 793 l 266 799 l 266 457 l 336 457 l 336 428 l 110 428 l 110 457 m 691 268 q 613 343 691 343 q 575 336 592 343 q 598 297 600 326 q 548 253 598 253 q 517 266 529 253 q 505 299 505 280 q 547 356 505 336 q 627 376 588 376 q 781 262 781 376 q 679 123 781 197 q 600 71 644 98 l 745 71 q 772 106 766 71 l 799 106 l 799 0 l 509 0 l 509 29 l 571 79 q 691 268 691 179 m 708 787 l 758 787 l 176 0 l 123 0 l 708 787 z "},"¾":{"ha":880,"x_min":79,"x_max":793,"o":"m 459 123 l 640 370 l 721 370 l 721 123 l 793 123 l 775 89 l 721 89 l 721 29 l 783 29 l 783 0 l 557 0 l 557 29 l 627 29 l 627 89 l 459 89 l 459 123 m 627 123 l 627 293 l 502 123 l 627 123 m 164 617 q 278 714 278 623 q 258 749 278 735 q 210 764 239 764 q 164 754 181 764 q 185 717 185 745 q 160 675 185 689 q 133 671 150 671 q 104 687 116 671 q 93 721 93 702 q 132 776 93 758 q 233 795 172 795 q 329 771 295 795 q 363 714 363 747 q 285 619 363 650 q 356 593 326 617 q 386 527 386 569 q 342 449 386 484 q 215 415 299 415 q 93 457 131 415 q 79 492 79 473 q 92 525 79 511 q 127 538 104 538 q 162 525 150 538 q 174 490 174 511 q 154 457 174 469 q 270 473 226 434 q 299 529 299 496 q 245 588 299 575 q 164 590 206 600 l 164 617 m 708 787 l 758 787 l 176 0 l 123 0 l 708 787 z "},"¿":{"ha":700,"x_min":75,"x_max":625,"o":"m 623 110 l 623 100 q 549 -19 623 37 q 359 -75 475 -75 q 159 -15 243 -75 q 75 143 75 44 q 214 376 75 285 q 332 424 270 413 l 359 571 l 409 571 l 440 415 q 267 298 332 378 q 203 136 203 218 q 246 12 203 54 q 378 -31 289 -31 q 515 29 467 -31 q 472 58 488 37 q 455 112 455 79 q 478 170 455 145 q 538 195 502 195 q 599 171 575 195 q 623 110 623 147 m 465 727 q 417 652 465 673 q 375 646 401 646 q 325 669 349 646 q 301 728 301 693 q 324 787 301 764 q 383 810 347 810 q 442 787 419 810 q 465 727 465 764 z "},"×":{"ha":789,"x_min":195,"x_max":594,"o":"m 359 280 l 197 444 l 231 478 l 394 316 l 557 478 l 594 444 l 432 280 l 594 118 l 559 79 l 394 243 l 231 79 l 197 118 l 359 280 z "},"÷":{"ha":789,"x_min":139,"x_max":652,"o":"m 421 434 q 387 430 407 430 q 348 448 367 430 q 330 496 330 467 q 348 543 330 525 q 394 561 367 561 q 440 542 421 561 q 459 496 459 523 q 421 434 459 451 m 139 332 l 650 332 l 650 282 l 139 282 l 139 332 m 421 54 q 389 48 409 48 q 349 68 368 48 q 330 115 330 87 q 348 162 330 143 q 394 180 367 181 q 442 161 422 179 q 461 116 461 143 q 421 54 461 71 z "},"ƒ":{"ha":530,"x_min":-54,"x_max":584,"o":"m 511 795 q 417 833 494 835 q 359 798 374 833 q 340 683 343 762 l 334 527 l 448 527 l 444 486 l 332 486 l 309 -25 q 189 -274 299 -228 q 116 -287 154 -289 q -8 -248 39 -287 q -54 -152 -54 -208 q -35 -103 -54 -123 q 11 -83 -15 -83 q 55 -100 37 -83 q 73 -146 73 -118 q 57 -189 73 -174 q 19 -206 41 -204 q 47 -235 25 -224 q 96 -247 69 -247 q 158 -204 143 -247 q 172 -91 168 -177 l 197 486 l 114 486 l 116 527 l 199 527 l 204 656 q 264 819 210 764 q 402 874 318 874 q 534 834 486 874 q 583 739 583 795 q 563 690 583 710 q 519 669 544 669 q 475 687 494 669 q 455 731 455 704 q 472 774 455 758 q 511 795 488 791 z "},"π":{"ha":787,"x_min":46,"x_max":698,"o":"m 594 -12 q 440 166 444 -12 l 440 455 l 262 455 l 262 129 q 231 25 262 62 q 146 -12 199 -12 q 62 33 93 -12 q 47 72 48 48 q 65 115 46 96 q 108 133 83 133 q 151 115 133 133 q 170 74 170 96 q 156 37 170 52 q 204 59 189 35 q 218 137 218 83 l 218 455 l 170 455 q 112 403 112 455 q 110 384 112 390 l 77 382 q 68 449 66 428 q 95 509 68 494 q 187 525 123 525 l 698 525 l 698 455 l 573 455 l 573 133 q 629 35 573 35 q 677 50 656 35 l 694 17 q 594 -12 656 -10 z "},"ॐ":{"ha":1204,"x_min":58,"x_max":1138,"o":"m 945 802 q 1138 490 1138 802 q 1078 239 1138 332 q 916 147 1019 147 q 814 192 845 147 q 783 345 783 237 l 783 399 q 735 494 783 494 q 629 451 693 494 q 720 221 720 328 q 657 54 720 114 q 490 -6 594 -6 q 201 145 324 -6 q 58 523 77 295 l 106 538 q 234 220 137 340 q 457 100 332 100 q 569 149 523 100 q 615 264 615 197 q 515 494 615 392 q 384 384 463 421 l 330 511 q 500 669 500 561 q 401 750 500 750 q 241 704 328 750 l 189 829 q 349 866 262 866 q 499 802 436 866 q 561 633 561 737 q 546 554 561 588 l 561 538 q 745 629 656 629 q 766 627 752 629 q 945 802 797 802 m 808 611 q 845 517 845 592 l 845 388 q 922 260 845 260 q 1032 323 988 260 q 1076 479 1076 386 q 1036 631 1076 573 q 932 689 995 689 q 808 611 845 689 m 413 978 l 457 1007 q 613 918 525 918 q 768 1007 702 918 l 872 920 q 671 812 772 812 q 413 978 521 812 m 631 1125 l 712 1042 l 631 963 l 550 1047 l 631 1125 z "},"॑":{"ha":0,"x_min":-413,"x_max":-311,"o":"m -311 1454 l -413 1454 l -413 2132 l -311 2132 l -311 1454 z "},"॒":{"ha":0,"x_min":-1019,"x_max":-81,"o":"m -81 -658 l -1019 -658 l -1019 -563 l -81 -563 l -81 -658 z "},"।":{"ha":172,"x_min":29,"x_max":123,"o":"m 123 -21 l 29 -21 l 29 611 l 123 611 l 123 -21 z "},"॥":{"ha":390,"x_min":29,"x_max":341,"o":"m 123 -21 l 29 -21 l 29 611 l 123 611 l 123 -21 m 341 -25 l 251 -25 l 251 606 l 341 606 l 341 -25 z "},"ఁ":{"ha":527,"x_min":29,"x_max":426,"o":"m 368 513 q 147 297 147 513 q 216 122 147 177 q 340 77 270 77 q 409 42 409 77 q 345 -4 409 -4 q 98 106 183 -4 q 29 307 29 193 q 93 498 29 421 q 330 596 174 596 q 405 583 384 596 q 426 556 421 575 q 414 519 426 525 q 368 513 401 513 z "},"ం":{"ha":704,"x_min":29,"x_max":656,"o":"m 498 476 q 347 529 438 529 q 201 477 257 529 q 145 347 145 426 q 189 218 145 268 q 343 150 241 150 q 503 218 446 150 q 556 350 556 276 q 498 476 556 424 m 575 85 q 345 -4 488 -4 q 116 83 203 -4 q 29 297 29 170 q 115 511 29 424 q 344 598 201 598 q 575 509 488 598 q 656 296 656 421 q 575 85 656 172 z "},"ః":{"ha":363,"x_min":29,"x_max":314,"o":"m 71 388 q 29 488 29 428 q 70 590 29 548 q 171 633 112 633 q 274 590 230 633 q 314 488 314 548 q 272 387 314 428 q 171 345 230 345 q 71 388 112 345 m 118 461 q 174 442 141 442 q 230 461 206 442 q 251 514 251 482 q 228 564 251 546 q 173 583 204 583 q 118 565 141 583 q 96 514 96 546 q 118 461 96 482 m 71 37 q 29 137 29 77 q 70 239 29 197 q 171 282 112 282 q 274 239 230 282 q 314 137 314 197 q 272 36 314 77 q 171 -6 230 -6 q 71 37 112 -6 m 118 214 q 96 163 96 195 q 119 110 96 131 q 174 89 141 89 q 230 112 206 89 q 251 162 251 129 q 228 213 251 195 q 173 231 204 231 q 118 214 141 231 z "},"అ":{"ha":818,"x_min":29,"x_max":770,"o":"m 177 455 q 230 438 199 438 q 283 453 260 438 q 305 499 305 469 q 283 545 305 529 q 230 561 260 561 q 178 542 199 561 q 158 499 158 523 q 177 455 158 475 m 230 303 q 270 340 230 340 l 471 340 q 432 387 446 353 q 419 455 419 421 q 459 575 419 529 q 573 621 500 621 q 721 536 664 621 q 770 347 770 459 q 677 95 770 187 q 404 0 579 0 q 131 89 230 0 q 29 334 29 176 q 77 519 29 438 q 257 621 141 621 q 353 590 311 621 q 395 502 395 559 q 348 409 395 444 q 239 374 301 374 q 112 455 139 374 q 96 363 96 411 q 400 154 96 154 q 704 376 704 154 q 671 484 704 438 q 581 540 637 540 q 498 503 525 540 q 475 438 475 476 q 534 363 475 376 q 581 316 581 349 q 563 283 581 295 q 523 270 546 270 l 270 270 q 230 303 230 270 z "},"ఆ":{"ha":791,"x_min":29,"x_max":743,"o":"m 660 405 q 673 461 673 430 q 651 517 673 492 q 588 542 629 542 q 523 523 548 542 q 502 469 502 502 q 538 410 502 436 q 627 384 575 384 q 660 405 644 384 m 285 270 q 230 305 230 270 q 285 340 230 340 q 542 340 413 340 q 457 396 490 361 q 424 493 424 432 q 464 594 424 554 q 575 635 503 635 q 694 591 646 635 q 743 474 743 548 q 696 353 743 399 q 731 245 731 305 q 641 68 731 135 q 393 2 552 2 q 131 96 233 2 q 29 349 29 191 q 77 525 29 448 q 257 621 141 621 q 353 590 311 621 q 395 502 395 559 q 348 409 395 444 q 239 374 301 374 q 112 455 139 374 q 95 357 95 421 q 170 211 95 268 q 376 154 245 154 q 577 187 507 154 q 650 282 650 220 q 644 316 650 299 q 590 282 627 293 q 521 270 554 270 l 285 270 m 177 455 q 230 438 199 438 q 283 453 260 438 q 305 499 305 469 q 283 545 305 529 q 230 561 260 561 q 178 542 199 561 q 158 499 158 523 q 177 455 158 475 z "},"ఇ":{"ha":791,"x_min":29,"x_max":743,"o":"m 262 550 q 162 467 162 546 q 149 404 162 428 q 100 380 137 380 q 29 459 29 380 q 77 571 29 523 q 228 623 135 623 q 328 600 285 623 q 392 542 372 581 q 436 599 399 577 q 529 621 473 621 q 681 546 621 621 q 743 368 743 473 q 679 181 743 264 q 743 2 743 89 q 660 -125 743 -125 q 606 -108 623 -125 q 586 -58 586 -85 q 599 4 586 -31 q 611 64 611 39 q 606 112 611 89 q 297 -2 492 -2 q 131 44 203 -2 q 52 178 52 93 q 141 313 52 264 q 315 357 218 357 q 496 326 413 357 q 631 245 579 295 q 662 379 662 309 q 619 499 662 449 q 517 548 577 548 q 452 530 478 548 q 426 483 426 511 q 418 447 426 455 q 387 438 409 438 q 357 447 365 438 q 349 479 349 455 q 321 527 349 503 q 262 550 293 550 m 569 193 q 486 260 548 235 q 363 285 424 285 q 226 199 226 285 q 274 137 226 158 q 359 123 311 123 q 569 193 494 123 z "},"ఈ":{"ha":1310,"x_min":29,"x_max":1262,"o":"m 307 557 q 195 673 195 600 q 220 733 195 714 q 270 750 239 750 q 349 672 314 750 q 422 594 384 594 q 598 799 488 594 l 621 841 q 661 892 640 880 q 712 905 681 905 q 765 883 743 905 q 787 828 787 860 q 708 716 787 777 l 667 687 l 552 594 q 787 388 733 559 l 1073 388 q 1131 423 1107 394 q 1155 490 1155 453 q 1131 551 1155 527 q 1071 575 1107 575 q 1013 559 1034 575 q 988 519 988 546 l 992 484 q 932 428 992 428 q 894 446 912 428 q 876 496 876 463 q 936 600 876 567 q 1056 629 982 629 q 1174 591 1130 629 q 1217 498 1217 554 q 1150 367 1217 395 q 1234 299 1206 345 q 1262 201 1262 253 q 1208 60 1262 114 q 1069 10 1154 10 q 934 62 984 10 q 883 187 883 114 q 901 263 883 224 q 949 322 918 303 l 801 322 l 801 291 q 714 84 801 172 q 477 -4 627 -4 q 238 83 328 -4 q 149 291 149 170 l 149 322 l 62 322 q 29 355 29 322 q 62 388 29 388 l 162 388 q 307 557 201 509 m 314 201 q 474 143 372 143 q 634 197 575 143 q 704 322 693 251 l 260 322 q 314 201 268 245 m 332 496 q 262 388 274 455 l 704 388 q 627 497 689 453 q 478 540 565 540 q 332 496 392 540 m 1150 164 q 1179 229 1179 187 q 1147 290 1179 270 q 1073 311 1115 311 q 999 287 1030 311 q 968 226 968 264 q 995 163 968 187 q 1073 139 1022 139 q 1150 164 1125 139 z "},"ఉ":{"ha":912,"x_min":29,"x_max":864,"o":"m 457 646 q 421 724 421 693 q 437 781 421 756 q 486 806 453 806 q 535 781 519 806 q 552 724 552 756 q 524 657 552 693 q 492 608 496 621 l 480 608 q 457 646 475 619 m 218 316 q 372 156 218 156 q 451 180 413 156 q 490 240 490 204 q 511 276 490 276 q 529 268 521 276 q 532 241 532 257 q 571 179 532 201 q 658 156 606 156 q 810 258 810 156 q 806 291 810 268 q 766 228 801 251 q 691 210 735 210 q 614 239 646 210 q 583 311 583 268 q 620 378 583 353 q 720 403 658 403 q 824 351 783 403 q 864 217 864 299 q 813 68 864 135 q 657 0 762 0 q 507 93 552 0 q 340 -2 457 -2 q 218 48 278 -2 q 135 245 135 120 q 137 305 135 264 l 137 316 l 64 316 q 37 321 44 316 q 29 348 29 326 q 39 380 29 370 q 64 384 46 384 l 164 384 q 297 542 204 488 q 478 594 380 594 q 666 561 577 594 q 754 476 754 529 q 702 436 754 436 q 640 473 669 436 q 476 540 583 540 q 325 498 397 540 q 233 384 253 455 l 498 384 q 538 376 529 384 q 546 348 546 367 q 536 322 546 330 q 498 316 525 316 l 218 316 m 756 282 q 772 312 772 293 q 755 342 772 330 q 719 355 739 355 q 685 343 698 355 q 667 313 667 332 q 682 281 667 293 q 720 268 696 268 q 756 282 743 268 z "},"ఊ":{"ha":1310,"x_min":29,"x_max":1262,"o":"m 731 280 q 757 303 731 303 q 802 268 783 303 q 824 201 824 237 q 770 54 824 106 q 639 2 716 2 q 500 79 536 2 q 442 23 484 44 q 357 2 399 2 q 199 83 258 2 q 141 268 141 158 q 143 316 141 299 l 62 316 q 29 348 29 316 q 62 380 29 380 l 158 380 q 270 530 193 476 q 472 594 355 594 q 669 557 588 594 q 760 455 760 519 q 744 424 760 438 q 708 411 727 411 q 637 459 664 411 q 610 496 623 478 q 476 540 575 540 q 311 492 378 540 q 226 380 253 448 l 1073 380 q 1131 416 1107 386 q 1155 482 1155 446 q 1131 543 1155 519 q 1071 567 1107 567 q 1013 554 1034 567 q 988 513 988 540 l 992 478 q 932 421 992 421 q 894 438 912 421 q 876 488 876 455 q 936 594 876 559 q 1056 621 982 621 q 1174 584 1130 621 q 1217 482 1217 548 q 1150 357 1217 395 q 1234 292 1206 340 q 1262 193 1262 245 q 1208 55 1262 108 q 1069 2 1154 2 q 934 55 984 2 q 883 179 883 108 q 901 258 883 218 q 949 316 918 297 l 210 316 l 210 303 q 252 199 210 241 q 367 156 293 156 q 446 180 407 156 q 484 240 484 204 q 506 276 484 276 q 529 238 529 276 q 565 178 529 201 q 647 156 602 156 q 721 177 693 156 q 747 223 747 199 q 739 260 747 247 q 731 280 731 268 m 1073 303 q 999 282 1030 303 q 968 219 968 257 q 993 156 968 181 q 1073 131 1022 131 q 1150 156 1125 131 q 1179 223 1179 181 q 1147 284 1179 264 q 1073 303 1115 303 m 478 772 q 494 719 494 750 q 466 651 494 687 q 434 600 438 615 l 422 600 q 399 639 417 611 q 363 719 363 687 q 379 774 363 750 q 428 799 395 799 q 478 772 461 799 m 640 772 q 658 719 658 750 q 630 651 658 687 q 598 600 602 615 l 586 600 q 563 639 581 611 q 525 719 525 687 q 542 772 525 750 q 591 799 559 799 q 640 772 623 799 z "},"ఋ":{"ha":1557,"x_min":29,"x_max":1508,"o":"m 351 181 q 390 252 390 212 q 413 291 390 291 q 426 282 422 291 q 434 253 434 268 q 465 176 434 204 q 556 147 496 147 q 662 201 615 147 q 708 332 708 258 q 660 455 708 405 q 546 505 611 505 q 484 513 502 505 q 471 550 471 525 q 488 584 471 575 q 538 598 505 598 q 705 513 637 598 q 774 309 774 428 q 768 228 774 280 q 829 169 787 191 q 927 147 870 147 q 1030 201 984 147 q 1074 332 1074 258 q 1028 455 1074 405 q 914 505 980 505 q 854 515 870 505 q 837 550 837 525 q 856 584 837 575 q 907 598 874 598 q 1073 513 1005 598 q 1142 309 1142 428 q 1136 228 1142 264 q 1196 169 1155 191 q 1293 147 1236 147 q 1397 201 1350 147 q 1443 332 1443 258 q 1395 455 1443 405 q 1281 505 1346 505 q 1221 513 1236 505 q 1206 550 1206 525 q 1223 584 1206 575 q 1275 598 1240 598 q 1440 513 1372 598 q 1508 295 1508 428 q 1445 79 1508 162 q 1271 -4 1385 -4 q 1169 25 1215 -4 q 1092 98 1121 50 q 1015 23 1065 50 q 908 -4 965 -4 q 806 23 851 -4 q 729 95 758 48 q 657 25 704 50 q 558 0 610 0 q 467 24 507 0 q 405 89 426 48 q 226 0 351 0 q 87 54 145 0 q 29 178 29 104 q 73 296 29 253 q 198 353 118 340 q 307 388 278 367 q 336 448 336 409 q 312 510 336 486 q 248 534 287 534 q 183 518 208 534 q 158 488 158 502 q 167 456 158 475 q 176 432 176 438 q 106 386 176 386 q 54 409 77 386 q 33 465 33 432 q 85 566 33 525 q 213 608 137 608 q 343 563 289 608 q 397 457 397 519 q 367 361 397 395 q 254 304 336 326 q 148 264 172 282 q 123 216 123 247 q 264 147 123 147 q 351 181 314 147 z "},"ఌ":{"ha":1123,"x_min":29,"x_max":1074,"o":"m 390 559 q 569 650 444 650 q 702 604 646 650 q 766 473 766 554 q 758 417 766 442 q 687 280 748 345 q 513 65 513 149 q 669 -62 513 -19 q 708 -66 694 -66 l 739 -66 q 974 87 893 -66 q 1011 258 1011 154 q 893 488 1011 426 q 845 557 845 517 q 885 604 845 596 l 887 604 q 1065 351 1011 604 q 1074 235 1074 287 q 874 -164 1074 -68 q 729 -193 802 -193 q 475 -71 592 -193 q 426 54 426 -4 l 426 68 q 594 293 426 160 q 669 427 669 378 q 625 490 669 476 q 542 502 594 502 q 449 473 490 502 q 405 397 405 438 q 380 357 405 357 q 361 397 361 357 q 245 496 361 496 q 160 459 193 496 q 127 374 127 426 q 156 284 127 322 q 158 278 158 282 q 152 270 158 274 q 137 266 147 266 l 129 266 q 61 319 93 278 q 29 444 29 361 q 86 584 29 527 q 226 642 143 642 q 390 559 345 642 z "},"ఎ":{"ha":874,"x_min":29,"x_max":826,"o":"m 478 739 l 386 725 q 322 777 322 725 q 357 837 322 820 q 432 855 392 855 q 714 699 602 855 q 826 372 826 544 q 768 108 826 201 q 563 0 702 0 q 470 34 507 0 q 424 104 432 68 q 365 35 409 68 q 247 -2 311 -2 q 94 64 158 -2 q 29 230 29 129 q 92 395 29 330 q 266 461 154 461 q 373 429 328 461 q 444 355 419 397 q 467 291 453 338 q 604 160 511 160 q 710 226 671 160 q 748 380 748 291 q 663 633 748 527 q 478 739 577 739 m 359 189 q 386 279 386 228 q 346 363 386 330 q 253 395 307 395 q 160 363 199 395 q 123 280 123 328 q 157 189 123 231 q 258 147 191 147 q 359 189 326 147 z "},"ఏ":{"ha":874,"x_min":29,"x_max":826,"o":"m 216 669 q 203 658 216 658 q 123 704 154 658 q 93 808 93 750 q 152 950 93 889 q 301 1011 212 1011 q 390 984 349 1011 q 430 918 430 957 q 426 907 430 914 l 426 905 q 351 922 390 922 q 231 874 282 922 q 179 768 179 826 q 210 679 179 710 q 212 675 212 679 l 216 669 m 478 739 l 386 725 q 322 777 322 725 q 357 837 322 820 q 432 855 392 855 q 714 699 602 855 q 826 372 826 544 q 768 108 826 201 q 563 0 702 0 q 470 34 507 0 q 424 104 432 68 q 365 35 409 68 q 247 -2 311 -2 q 94 64 158 -2 q 29 230 29 129 q 92 395 29 330 q 266 461 154 461 q 373 429 328 461 q 444 355 419 397 q 467 291 453 338 q 604 160 511 160 q 710 226 671 160 q 748 380 748 291 q 663 633 748 527 q 478 739 577 739 m 359 189 q 386 279 386 228 q 346 363 386 330 q 253 395 307 395 q 160 363 199 395 q 123 280 123 328 q 157 189 123 231 q 258 147 191 147 q 359 189 326 147 z "},"ఐ":{"ha":824,"x_min":29,"x_max":775,"o":"m 775 351 q 538 -2 775 -2 q 432 26 473 -2 q 382 89 392 54 q 332 31 368 54 q 213 -2 285 -2 q 85 55 141 -2 q 29 199 29 112 q 85 341 29 285 q 231 397 141 397 q 409 262 384 397 q 448 180 421 206 q 535 154 475 154 q 640 191 596 154 q 702 341 702 241 q 658 507 702 442 q 525 583 610 583 q 461 564 488 583 q 434 518 434 546 q 425 481 434 490 q 396 473 417 473 q 366 486 376 473 q 355 521 355 500 q 333 563 355 542 q 270 584 311 584 q 172 494 177 584 q 96 417 164 417 q 54 438 71 417 q 39 496 39 459 q 87 606 39 557 q 235 658 143 658 q 336 635 293 658 q 399 577 380 615 q 446 634 409 611 q 536 656 482 656 q 708 569 640 656 q 775 351 775 482 m 143 313 q 112 243 112 282 q 140 174 112 204 q 225 143 168 143 q 310 172 282 143 q 338 243 338 201 q 304 313 338 285 q 223 340 270 340 q 143 313 176 340 z "},"ఒ":{"ha":814,"x_min":29,"x_max":766,"o":"m 179 448 q 112 401 179 401 q 60 424 83 401 q 39 482 39 449 q 95 586 39 550 q 229 623 150 623 q 355 584 307 623 q 403 473 403 544 q 235 305 403 357 q 123 216 123 270 q 170 158 123 174 q 264 147 199 147 q 343 177 303 147 q 390 260 390 210 q 392 282 390 274 q 410 291 397 291 q 430 282 422 291 q 434 253 434 270 q 463 178 434 204 q 547 152 492 152 q 635 188 602 152 q 667 275 667 224 q 639 367 667 326 q 637 367 637 367 l 637 370 q 656 384 637 384 l 664 384 q 687 373 669 380 q 727 336 704 367 q 766 205 766 287 q 708 66 766 123 q 569 8 650 8 q 405 89 448 8 q 226 0 351 0 q 89 48 149 0 q 29 185 29 96 q 96 318 29 274 q 216 357 135 343 q 299 392 260 367 q 341 466 341 424 q 311 530 341 507 q 251 550 287 550 q 164 496 164 550 q 172 475 164 490 q 179 448 179 459 z "},"ఓ":{"ha":814,"x_min":29,"x_max":766,"o":"m 413 693 q 324 768 413 768 q 235 685 235 768 q 270 619 235 648 q 367 571 332 610 q 403 473 403 532 q 235 305 403 357 q 123 216 123 270 q 170 158 123 174 q 264 147 199 147 q 343 177 303 147 q 390 260 390 210 q 392 282 390 274 q 410 291 397 291 q 430 282 422 291 q 434 253 434 270 q 463 178 434 204 q 547 152 492 152 q 635 188 602 152 q 667 275 667 224 q 639 367 667 326 q 637 367 637 367 l 637 370 q 656 384 637 384 l 664 384 q 687 373 669 380 q 727 336 704 367 q 766 205 766 287 q 708 66 766 123 q 569 8 650 8 q 405 89 448 8 q 226 0 351 0 q 89 48 149 0 q 29 185 29 96 q 96 318 29 274 q 216 357 135 343 q 299 392 260 367 q 341 466 341 424 q 311 530 341 507 q 251 550 287 550 q 164 496 164 550 q 172 475 164 490 q 179 448 179 459 q 112 401 179 401 q 60 424 83 401 q 39 482 39 449 q 88 580 39 544 q 201 621 137 615 q 158 739 158 673 q 200 840 158 804 q 316 876 241 876 q 436 835 392 876 q 475 737 475 795 q 467 693 475 714 q 434 650 455 673 l 407 656 q 413 693 413 669 z "},"ఔ":{"ha":822,"x_min":29,"x_max":774,"o":"m 29 777 q 95 835 29 835 l 552 835 q 718 758 664 835 q 762 602 762 696 q 720 454 762 507 q 609 401 677 401 q 498 442 540 401 q 455 547 455 482 q 494 651 455 611 q 598 691 532 691 q 656 679 631 691 q 704 639 681 664 q 669 704 704 681 q 592 727 635 727 l 382 727 q 395 698 392 718 q 401 667 401 683 q 361 584 401 613 q 397 536 386 565 q 413 473 413 509 q 245 305 413 357 q 133 216 133 270 q 177 158 133 174 q 274 147 208 147 q 351 177 311 147 q 397 260 397 210 q 422 291 397 291 q 438 282 430 291 q 444 253 444 270 q 557 152 444 152 q 642 188 610 152 q 675 275 675 224 q 646 367 675 326 q 644 367 644 367 l 644 370 q 651 380 644 376 q 664 384 658 384 l 673 384 q 681 380 679 380 q 737 336 714 367 q 774 205 774 287 q 717 66 774 123 q 586 8 660 8 q 413 89 455 8 q 233 0 365 0 q 100 44 158 0 q 39 185 39 96 q 104 318 39 274 q 224 357 143 343 q 309 392 270 367 q 351 466 351 424 q 324 529 351 507 q 262 550 297 550 q 172 496 172 550 q 180 475 172 490 q 189 448 189 459 q 120 401 189 401 q 69 425 93 401 q 46 482 46 449 q 95 581 46 540 q 83 602 83 581 q 100 623 83 623 l 291 623 q 322 638 309 623 q 336 672 336 652 q 326 710 336 693 q 299 727 314 727 l 95 727 q 29 777 29 727 m 656 621 q 604 640 637 640 q 551 621 571 640 q 530 572 530 602 q 551 523 530 542 q 602 503 571 503 q 655 522 633 503 q 677 572 677 540 q 656 621 677 604 z "},"క":{"ha":712,"x_min":29,"x_max":664,"o":"m 251 255 q 39 409 39 255 q 129 552 39 500 q 160 567 145 559 l 158 569 q 71 675 71 615 q 95 736 71 718 q 147 754 118 754 q 227 676 193 754 q 299 598 260 598 q 475 801 367 598 l 498 845 q 538 895 519 883 q 588 907 557 907 q 641 885 619 907 q 664 831 664 864 q 586 720 664 781 l 546 691 l 507 658 q 421 588 459 617 q 525 552 478 577 q 598 467 598 511 q 575 424 598 438 q 534 411 557 411 q 430 463 476 411 q 293 527 376 527 q 200 509 239 527 q 160 455 160 492 q 228 384 160 401 q 351 372 270 372 l 395 374 l 417 374 q 579 335 511 374 q 646 220 646 295 q 534 54 646 116 q 322 0 444 0 q 118 37 201 0 q 29 156 29 79 q 54 205 29 189 q 112 222 79 222 q 181 164 145 222 q 359 64 245 64 q 448 89 403 64 q 494 158 494 120 q 432 235 494 210 q 328 257 386 257 l 251 255 z "},"ఖ":{"ha":947,"x_min":29,"x_max":899,"o":"m 270 343 q 498 253 424 343 q 511 340 511 282 q 482 452 511 397 q 407 523 453 507 q 409 496 409 513 q 355 401 409 442 q 223 363 299 363 q 100 394 147 363 q 56 480 56 424 q 116 576 56 536 q 278 615 176 615 q 502 535 422 615 q 581 313 581 455 q 565 235 581 299 l 563 216 q 610 170 577 187 q 681 150 640 150 q 797 200 756 150 q 837 332 837 249 q 785 469 837 415 q 660 523 733 523 q 613 536 633 523 q 594 574 594 554 q 613 609 594 594 q 660 623 633 623 q 829 530 758 623 q 899 300 899 438 q 837 81 899 162 q 667 -2 777 -2 q 573 23 617 -2 q 502 93 529 48 q 268 -4 419 -4 q 99 49 170 -4 q 29 177 29 102 q 96 297 29 253 q 270 343 160 343 m 399 241 q 294 264 355 264 q 198 244 233 264 q 162 189 162 224 q 199 135 162 154 q 293 116 235 116 q 463 183 395 116 q 399 241 446 220 m 316 444 q 338 490 338 463 q 317 535 338 517 q 262 554 297 554 q 205 535 228 554 q 183 488 183 517 q 206 442 183 459 q 261 424 230 424 q 316 444 293 424 m 507 25 q 575 -108 575 -46 q 554 -161 575 -141 q 497 -181 532 -181 q 440 -162 461 -181 q 419 -112 419 -143 q 498 33 419 -46 l 507 25 z "},"గ":{"ha":766,"x_min":29,"x_max":718,"o":"m 465 586 q 623 496 557 565 q 718 274 718 401 q 689 79 718 147 q 610 0 664 10 l 556 0 q 514 30 530 0 q 498 83 498 60 q 545 203 498 141 q 592 342 592 264 q 532 474 592 421 q 373 527 473 527 q 214 474 274 527 q 154 342 154 421 q 203 203 154 264 q 251 83 251 141 q 233 30 251 60 q 193 0 216 0 l 166 0 q 127 0 135 -2 q 56 81 79 14 q 29 276 29 149 q 118 496 29 403 q 210 565 160 540 q 203 569 206 565 q 118 675 118 615 q 143 737 118 718 q 193 754 162 754 q 273 676 239 754 q 345 598 307 598 q 521 801 413 598 l 542 845 q 584 895 565 883 q 634 907 604 907 q 687 885 664 907 q 710 831 710 864 q 631 720 710 781 l 590 691 l 552 658 q 465 586 503 615 z "},"ఘ":{"ha":1204,"x_min":29,"x_max":1155,"o":"m 359 189 q 386 279 386 228 q 346 363 386 330 q 253 395 307 395 q 160 363 199 395 q 123 280 123 328 q 157 189 123 231 q 258 147 191 147 q 359 189 326 147 m 432 801 l 459 849 q 500 901 480 889 q 550 912 519 912 q 604 889 581 912 q 627 835 627 870 q 548 725 627 787 l 507 696 l 463 656 q 256 527 316 527 q 114 574 195 527 q 33 681 33 621 q 55 741 33 723 q 108 758 77 758 q 188 678 154 758 q 260 598 222 598 q 432 801 326 598 m 1109 106 q 919 -4 1047 -4 q 758 106 791 -4 q 752 95 756 100 q 563 0 694 0 q 470 34 507 0 q 424 104 432 68 q 365 35 409 68 q 247 -2 311 -2 q 94 64 158 -2 q 29 230 29 129 q 92 395 29 330 q 266 461 154 461 q 373 429 328 461 q 444 355 419 397 q 467 291 453 338 q 604 160 511 160 q 704 224 671 160 q 725 335 725 268 q 673 448 725 401 q 569 486 627 486 q 525 500 542 486 q 503 540 503 513 q 563 598 503 598 q 731 503 669 598 q 793 280 793 409 q 789 210 793 241 q 812 183 797 195 q 916 147 855 147 q 1047 216 997 147 q 1090 339 1090 272 q 1046 455 1090 405 q 928 505 999 505 q 867 516 882 505 q 853 552 853 527 q 922 598 853 598 q 1085 507 1015 598 q 1155 302 1155 417 q 1109 106 1155 187 m 422 17 q 500 -123 500 -60 q 479 -176 500 -154 q 422 -197 459 -197 q 367 -179 386 -197 q 343 -125 343 -162 q 367 -54 343 -89 q 422 17 390 -19 z "},"ఙ":{"ha":814,"x_min":29,"x_max":766,"o":"m 525 635 q 565 616 548 635 q 583 577 583 598 q 532 488 583 556 l 693 488 l 693 419 l 395 419 q 235 305 372 345 q 123 216 123 270 q 170 158 123 174 q 264 147 199 147 q 343 177 303 147 q 390 260 390 210 q 392 282 390 274 q 410 291 397 291 q 430 282 422 291 q 434 253 434 270 q 463 178 434 204 q 547 152 492 152 q 635 188 602 152 q 667 275 667 224 q 639 367 667 326 q 637 367 637 367 l 637 370 q 656 384 637 384 l 664 384 q 687 373 669 380 q 727 336 704 367 q 766 205 766 287 q 708 62 766 123 q 569 0 650 0 q 405 89 455 0 q 226 0 351 0 q 89 48 149 0 q 29 185 29 96 q 96 318 29 274 q 216 357 135 343 q 299 392 260 367 q 341 466 341 424 q 311 530 341 507 q 251 550 287 550 q 164 496 164 550 q 172 475 164 490 q 179 448 179 459 q 112 401 179 401 q 60 424 83 401 q 39 482 39 449 q 95 586 39 550 q 226 623 150 623 q 348 588 301 623 q 401 488 395 554 l 515 488 q 488 525 511 496 q 465 577 465 554 q 525 635 465 635 z "},"చ":{"ha":891,"x_min":29,"x_max":843,"o":"m 488 276 q 511 240 511 276 q 542 179 511 204 q 626 154 573 154 q 725 200 679 154 q 772 330 772 245 q 712 471 772 415 q 561 527 652 527 l 469 527 q 334 569 405 529 q 249 675 249 615 q 274 737 249 718 q 324 754 293 754 q 403 676 368 754 q 476 598 438 598 q 652 801 542 598 l 675 845 q 716 895 696 883 q 766 907 735 907 q 819 885 797 907 q 841 831 841 864 q 762 720 841 781 l 721 691 l 685 658 q 610 596 642 623 q 781 491 720 586 q 843 269 843 395 q 777 68 843 143 q 625 0 716 0 q 482 79 534 0 q 327 0 421 0 q 176 56 233 0 q 125 183 125 108 q 141 253 125 220 q 179 316 154 289 l 83 316 q 42 326 56 316 q 29 363 29 336 q 87 415 29 415 l 320 415 q 361 402 347 415 q 374 369 374 390 q 357 338 374 349 q 314 326 340 326 q 233 299 258 326 q 212 243 212 280 q 241 183 212 206 q 331 152 276 152 q 426 177 386 152 q 467 238 467 201 q 488 276 467 276 z "},"ఛ":{"ha":891,"x_min":29,"x_max":843,"o":"m 490 0 q 559 -123 559 -69 q 539 -176 559 -154 q 482 -197 519 -197 q 403 -125 403 -197 q 430 -44 403 -89 q 482 17 449 -19 l 490 0 m 488 276 q 511 240 511 276 q 542 179 511 204 q 626 154 573 154 q 725 200 679 154 q 772 330 772 245 q 712 471 772 415 q 561 527 652 527 l 467 527 q 336 569 405 530 q 251 675 251 615 q 274 736 251 718 q 326 754 297 754 q 406 676 372 754 q 478 598 440 598 q 654 801 546 598 l 677 845 q 718 895 698 883 q 767 907 737 907 q 820 885 797 907 q 843 831 843 864 q 766 720 843 781 l 725 691 l 685 658 q 608 594 644 621 q 772 513 714 583 q 843 264 843 430 q 777 68 843 143 q 625 0 716 0 q 482 79 534 0 q 327 0 421 0 q 176 56 233 0 q 125 183 125 108 q 141 253 125 220 q 179 316 154 289 l 83 316 q 42 326 56 316 q 29 363 29 336 q 87 415 29 415 l 320 415 q 361 402 347 415 q 374 369 374 390 q 357 338 374 349 q 314 326 340 326 q 233 299 258 326 q 212 243 212 280 q 241 183 212 206 q 331 152 276 152 q 426 177 386 152 q 467 238 467 201 q 488 276 467 276 z "},"జ":{"ha":799,"x_min":29,"x_max":750,"o":"m 567 519 l 494 513 q 454 525 475 513 q 434 562 434 536 q 461 600 434 588 q 545 615 484 615 q 654 577 606 615 q 704 480 704 540 q 657 382 704 421 q 548 343 610 343 q 384 397 430 343 q 238 300 355 336 q 122 212 122 264 q 230 143 122 143 q 322 166 278 143 q 382 255 382 197 q 407 285 382 285 q 426 243 426 285 q 461 174 426 201 q 544 149 490 149 q 633 174 598 149 q 667 231 667 199 q 654 275 667 264 q 640 293 640 285 q 658 311 640 311 q 721 280 698 311 q 750 178 750 245 q 702 60 750 112 q 569 6 648 6 q 407 89 449 6 q 347 31 386 50 q 222 0 297 0 q 88 47 147 0 q 29 181 29 95 q 96 313 29 268 q 195 347 133 338 q 296 386 257 357 q 336 455 336 415 q 310 518 336 496 q 248 540 284 540 q 193 530 212 540 q 162 488 162 517 q 169 466 162 482 q 176 438 176 449 q 110 395 176 395 q 60 419 83 395 q 39 473 39 442 q 94 576 39 540 q 221 611 149 611 q 340 577 293 611 q 395 486 386 546 q 538 397 434 397 q 598 421 577 397 q 617 463 617 438 q 603 503 617 488 q 567 519 588 519 z "},"ఝ":{"ha":1451,"x_min":29,"x_max":1402,"o":"m 530 210 q 588 348 588 268 q 525 477 588 428 q 359 527 461 527 q 195 473 257 527 q 137 335 137 419 q 194 197 137 251 q 359 143 251 143 q 530 210 467 143 m 1074 -108 q 1054 -160 1074 -139 q 998 -181 1034 -181 q 943 -164 963 -181 q 918 -109 918 -147 q 941 -38 918 -71 q 997 33 965 -4 q 1055 -39 1022 14 q 1074 -108 1074 -77 m 673 214 q 816 147 714 147 q 939 216 895 147 q 972 338 972 268 q 927 467 972 407 q 810 527 882 527 q 748 531 762 527 q 735 559 735 536 q 751 590 735 583 q 802 598 768 598 q 966 507 895 598 q 1038 309 1038 417 q 1030 216 1038 258 q 1057 183 1040 199 q 1161 147 1100 147 q 1292 216 1244 147 q 1335 339 1335 272 q 1292 455 1335 405 q 1173 505 1246 505 q 1113 516 1128 505 q 1098 551 1098 527 q 1119 586 1098 575 q 1167 598 1136 598 q 1331 507 1260 598 q 1402 302 1402 417 q 1354 106 1402 187 q 1163 -4 1292 -4 q 1034 50 1078 -4 q 999 123 1009 79 q 992 108 995 114 q 801 0 930 0 q 652 64 712 0 q 617 110 631 85 q 598 89 610 98 q 359 0 507 0 q 118 89 210 0 q 29 297 29 170 q 118 507 29 424 q 203 565 154 544 q 199 569 201 567 q 112 675 112 615 q 135 736 112 718 q 187 754 158 754 q 267 676 233 754 q 340 598 301 598 q 515 801 407 598 l 538 845 q 579 895 559 883 q 629 907 598 907 q 682 885 660 907 q 704 831 704 864 q 627 720 704 781 l 586 691 l 548 658 q 459 586 498 615 q 598 507 540 565 q 681 291 681 421 q 673 214 681 251 z "},"ఞ":{"ha":1028,"x_min":29,"x_max":980,"o":"m 606 102 q 297 -10 486 -10 q 127 38 203 -10 q 52 170 52 85 q 141 303 52 255 q 315 347 218 347 q 496 316 413 347 q 631 237 579 285 q 662 370 662 299 q 619 491 662 442 q 517 540 577 540 q 452 521 478 540 q 426 474 426 502 q 417 438 426 446 q 382 428 409 428 q 349 469 349 428 q 321 518 349 496 q 251 540 293 540 q 183 513 208 540 q 162 458 162 496 q 149 396 162 421 q 89 372 137 372 q 46 395 62 372 q 29 451 29 417 q 77 561 29 513 q 228 615 135 615 q 325 586 282 615 q 392 519 368 557 q 437 583 399 554 q 537 611 475 611 q 654 565 600 611 q 727 444 708 523 l 824 444 l 816 455 q 777 536 777 507 q 835 588 777 588 q 891 536 891 588 q 855 459 891 513 l 845 444 l 980 444 l 980 374 l 739 374 q 743 351 743 367 q 679 172 743 257 q 743 -10 743 81 q 660 -135 743 -135 q 586 -54 586 -135 q 599 -5 586 -41 q 611 54 611 31 q 606 102 611 77 m 569 183 q 486 253 548 228 q 363 278 424 278 q 268 258 301 278 q 226 192 226 235 q 274 129 226 149 q 359 114 311 114 q 569 183 494 114 z "},"ట":{"ha":849,"x_min":29,"x_max":801,"o":"m 293 451 q 316 497 316 467 q 295 543 316 527 q 243 559 274 559 q 191 541 212 559 q 170 498 170 523 q 191 454 170 473 q 243 436 212 436 q 293 451 274 436 m 507 540 q 569 598 507 598 q 739 500 671 598 q 801 304 801 417 q 758 112 801 191 q 569 0 698 0 q 476 22 521 0 q 413 79 432 44 q 258 -2 347 -2 q 87 85 147 -2 q 29 336 29 174 q 83 519 29 438 q 262 619 147 619 q 359 583 316 619 q 407 482 407 544 q 361 382 407 421 q 265 343 314 343 q 175 367 216 343 q 123 453 133 392 q 102 357 102 394 q 137 218 102 264 q 280 156 177 156 q 359 180 320 156 q 397 240 397 204 q 419 276 397 276 q 440 238 440 276 q 478 179 440 201 q 572 156 513 156 q 681 201 631 156 q 731 340 731 245 q 679 449 731 405 q 573 486 631 486 q 528 500 548 486 q 507 540 507 513 m 172 768 q 251 839 172 839 q 308 818 287 839 q 328 767 328 797 q 308 700 328 737 q 258 635 287 664 l 251 625 q 172 768 172 708 z "},"ఠ":{"ha":752,"x_min":29,"x_max":704,"o":"m 407 322 q 361 303 386 303 q 317 323 336 303 q 299 367 299 343 q 317 410 299 392 q 361 428 336 428 q 407 411 386 428 q 426 367 426 392 q 407 322 426 343 m 133 345 q 357 143 133 143 q 525 210 461 143 q 583 348 583 268 q 518 477 583 428 q 353 527 453 527 q 193 476 253 527 q 133 345 133 424 m 459 586 q 598 507 540 565 q 681 296 681 421 q 594 86 681 172 q 359 0 507 0 q 118 89 210 0 q 29 297 29 170 q 118 507 29 424 q 203 565 154 544 q 199 569 201 567 q 112 675 112 615 q 135 736 112 718 q 187 754 158 754 q 267 676 233 754 q 340 598 301 598 q 515 801 407 598 l 538 845 q 579 895 559 883 q 629 907 598 907 q 682 885 660 907 q 704 831 704 864 q 627 720 704 781 l 586 691 l 548 658 q 459 586 498 615 z "},"డ":{"ha":808,"x_min":29,"x_max":760,"o":"m 650 282 q 667 312 667 293 q 650 342 667 330 q 613 355 633 355 q 581 343 594 355 q 563 313 563 332 q 579 282 563 293 q 613 268 590 268 q 650 282 637 268 m 401 93 q 233 0 351 0 q 104 54 162 0 q 29 253 29 125 q 129 503 29 409 q 224 567 172 546 q 222 569 224 569 q 137 675 137 615 q 162 737 137 718 q 212 754 181 754 q 291 676 257 754 q 365 598 326 598 q 540 801 430 598 l 563 845 q 603 895 583 883 q 654 907 623 907 q 707 885 685 907 q 729 831 729 864 q 650 720 729 781 l 610 691 l 571 658 q 484 586 523 615 q 554 565 519 579 q 648 476 648 529 q 596 436 648 436 q 534 467 611 436 q 378 527 478 527 q 203 478 278 527 q 108 316 108 421 q 145 201 108 245 q 266 156 187 156 q 346 180 307 156 q 386 240 386 204 q 407 276 386 276 q 422 268 415 276 q 426 241 426 257 q 467 174 426 201 q 560 147 503 147 q 661 174 617 147 q 704 258 704 201 q 702 291 704 268 q 663 231 696 251 q 585 210 629 210 q 510 239 542 210 q 478 311 478 268 q 515 378 478 353 q 614 403 552 403 q 719 351 677 403 q 760 217 760 299 q 712 73 760 135 q 553 0 656 0 q 401 93 449 0 z "},"ఢ":{"ha":808,"x_min":29,"x_max":760,"o":"m 650 282 q 667 312 667 293 q 650 342 667 330 q 613 355 633 355 q 581 343 594 355 q 563 313 563 332 q 579 282 563 293 q 613 268 590 268 q 650 282 637 268 m 409 0 q 478 -123 478 -69 q 458 -176 478 -154 q 402 -197 438 -197 q 347 -179 367 -197 q 322 -125 322 -162 q 345 -54 322 -89 q 401 17 368 -19 l 409 0 m 401 93 q 233 0 351 0 q 104 54 162 0 q 29 253 29 125 q 129 503 29 409 q 224 567 172 546 q 222 569 224 569 q 137 675 137 615 q 162 737 137 718 q 212 754 181 754 q 291 676 257 754 q 365 598 326 598 q 540 801 430 598 l 563 845 q 603 895 583 883 q 654 907 623 907 q 707 885 685 907 q 729 831 729 864 q 650 720 729 781 l 610 691 l 571 658 q 484 586 523 615 q 554 565 519 579 q 648 476 648 529 q 596 436 648 436 q 534 467 611 436 q 378 527 478 527 q 203 478 278 527 q 108 316 108 421 q 145 201 108 245 q 266 156 187 156 q 346 180 307 156 q 386 240 386 204 q 407 276 386 276 q 422 268 415 276 q 426 241 426 257 q 467 174 426 201 q 560 147 503 147 q 661 174 617 147 q 704 258 704 201 q 702 291 704 268 q 663 231 696 251 q 585 210 629 210 q 510 239 542 210 q 478 311 478 268 q 515 378 478 353 q 614 403 552 403 q 719 351 677 403 q 760 217 760 299 q 712 73 760 135 q 553 0 656 0 q 401 93 449 0 z "},"ణ":{"ha":860,"x_min":29,"x_max":812,"o":"m 693 225 q 693 243 693 225 q 669 285 693 260 q 606 309 646 309 q 544 286 565 309 q 523 229 523 264 q 547 170 523 193 q 608 147 571 147 q 668 168 644 147 q 693 225 693 189 m 114 228 q 216 129 114 129 q 282 151 258 129 q 305 210 305 174 q 328 233 305 233 q 368 168 368 233 q 328 51 368 102 q 206 0 287 0 q 73 50 125 0 q 29 166 29 96 q 118 332 29 295 q 50 436 50 359 q 100 554 50 513 q 239 598 150 598 q 326 570 291 598 q 372 503 361 542 q 434 569 384 540 q 548 598 484 598 q 743 503 669 598 q 812 285 812 419 q 754 73 812 152 q 611 0 698 0 q 475 58 523 0 q 436 183 436 108 q 479 313 436 258 q 602 367 523 367 q 673 349 640 367 q 731 303 708 334 q 664 475 731 413 q 543 527 610 527 q 434 489 476 527 q 392 417 392 451 l 392 401 q 371 384 392 384 q 351 401 351 384 l 351 413 q 327 485 351 444 q 252 527 303 527 q 172 496 201 527 q 149 436 149 467 q 170 384 149 405 q 216 357 191 357 l 235 357 q 258 332 258 357 q 235 307 258 307 l 216 307 q 114 228 114 307 z "},"త":{"ha":837,"x_min":29,"x_max":789,"o":"m 640 430 q 598 442 627 442 q 552 428 569 442 q 529 391 529 415 q 547 352 529 367 q 594 338 565 338 q 640 357 623 338 q 658 395 658 372 q 640 430 658 419 m 284 380 q 212 434 284 434 q 164 420 185 434 q 143 379 143 405 q 166 337 143 353 q 217 320 189 320 q 264 338 245 320 q 284 380 284 355 m 621 488 q 505 527 590 527 l 407 527 q 278 565 345 530 q 193 669 193 610 q 218 731 193 710 q 268 747 239 747 q 348 672 314 747 q 421 598 382 598 q 600 802 488 598 l 619 837 q 660 888 640 876 q 709 901 679 901 q 762 879 739 901 q 785 824 785 856 q 708 714 785 774 l 552 598 q 644 557 600 594 q 712 461 694 519 q 768 393 747 442 q 789 285 789 343 q 694 79 789 152 q 386 0 590 0 q 149 56 245 0 q 29 262 29 125 q 71 411 29 353 q 239 488 125 488 q 330 459 287 488 q 372 375 372 430 q 331 288 372 320 q 230 257 289 257 q 96 328 131 257 l 96 303 q 397 143 96 143 q 650 193 565 143 q 725 318 725 239 q 720 363 725 340 q 664 303 704 326 q 567 280 619 280 q 480 303 515 280 q 438 379 438 328 q 476 461 438 430 q 583 492 515 492 q 621 488 610 492 z "},"థ":{"ha":804,"x_min":29,"x_max":756,"o":"m 426 338 q 382 318 409 318 q 335 338 355 318 q 314 385 314 357 q 335 432 314 413 q 382 451 355 451 q 429 432 409 451 q 449 385 449 413 q 426 338 449 357 m 332 170 q 367 230 367 195 q 393 264 367 264 q 419 230 419 264 q 453 170 419 195 q 542 149 488 149 q 632 188 596 149 q 667 303 667 228 q 583 462 667 397 q 393 527 498 527 q 203 462 287 527 q 118 303 118 397 q 152 188 118 228 q 242 149 187 149 q 332 170 297 149 m 392 -197 q 314 -125 314 -197 q 341 -44 314 -89 q 392 17 359 -19 l 401 0 q 471 -123 471 -73 q 450 -176 471 -154 q 392 -197 430 -197 m 500 583 q 656 496 590 559 q 756 264 756 403 q 698 79 756 158 q 532 0 640 0 q 450 21 488 0 q 392 75 413 42 q 335 21 372 42 q 253 0 297 0 q 87 79 145 0 q 29 264 29 158 q 131 496 29 401 q 241 569 181 546 q 158 675 158 617 q 183 737 158 718 q 233 754 203 754 q 313 676 278 754 q 386 598 347 598 q 561 801 453 598 l 583 845 q 625 895 606 883 q 674 907 644 907 q 727 885 704 907 q 750 831 750 864 q 671 720 750 781 l 631 691 l 592 658 q 500 583 540 613 z "},"ద":{"ha":804,"x_min":29,"x_max":756,"o":"m 332 170 q 367 230 367 195 q 393 264 367 264 q 419 230 419 264 q 453 170 419 195 q 542 149 488 149 q 632 188 596 149 q 667 303 667 228 q 583 462 667 397 q 393 527 498 527 q 203 462 287 527 q 118 303 118 397 q 152 188 118 228 q 242 149 187 149 q 332 170 297 149 m 500 583 q 656 496 590 559 q 756 264 756 403 q 698 79 756 158 q 532 0 640 0 q 450 21 488 0 q 392 75 413 42 q 335 21 372 42 q 253 0 297 0 q 87 79 145 0 q 29 264 29 158 q 131 496 29 401 q 241 569 181 546 q 158 675 158 617 q 183 737 158 718 q 233 754 203 754 q 313 676 278 754 q 386 598 347 598 q 561 801 453 598 l 583 845 q 625 895 606 883 q 674 907 644 907 q 727 885 704 907 q 750 831 750 864 q 671 720 750 781 l 631 691 l 592 658 q 500 583 540 613 z "},"ధ":{"ha":804,"x_min":29,"x_max":756,"o":"m 332 170 q 367 230 367 195 q 393 264 367 264 q 419 230 419 264 q 453 170 419 195 q 542 149 488 149 q 632 188 596 149 q 667 303 667 228 q 583 462 667 397 q 393 527 498 527 q 203 462 287 527 q 118 303 118 397 q 152 188 118 228 q 242 149 187 149 q 332 170 297 149 m 392 -197 q 314 -125 314 -197 q 341 -44 314 -89 q 392 17 359 -19 l 401 0 q 471 -123 471 -73 q 450 -176 471 -154 q 392 -197 430 -197 m 500 583 q 656 496 590 559 q 756 264 756 403 q 698 79 756 158 q 532 0 640 0 q 450 21 488 0 q 392 75 413 42 q 335 21 372 42 q 253 0 297 0 q 87 79 145 0 q 29 264 29 158 q 131 496 29 401 q 241 569 181 546 q 158 675 158 617 q 183 737 158 718 q 233 754 203 754 q 313 676 278 754 q 386 598 347 598 q 561 801 453 598 l 583 845 q 625 895 606 883 q 674 907 644 907 q 727 885 704 907 q 750 831 750 864 q 671 720 750 781 l 631 691 l 592 658 q 500 583 540 613 z "},"న":{"ha":845,"x_min":29,"x_max":797,"o":"m 191 0 q 29 201 29 0 q 92 376 29 307 q 270 446 154 446 q 405 394 355 446 q 459 281 455 343 q 480 191 463 218 q 574 149 507 149 q 675 187 640 149 q 721 327 721 235 q 668 473 721 419 q 532 527 615 527 l 270 527 q 131 571 204 527 q 46 679 46 619 q 73 741 46 720 q 122 754 93 754 q 202 676 168 754 q 274 598 235 598 q 449 801 340 598 l 473 847 q 513 898 494 885 q 563 910 532 910 q 617 888 594 910 q 640 831 640 866 q 561 721 640 783 l 521 693 l 494 669 q 403 598 434 619 l 529 598 q 718 513 639 598 q 797 292 797 428 q 732 78 797 156 q 552 0 667 0 q 412 48 467 0 q 357 166 357 96 q 365 218 357 183 q 372 293 372 253 q 338 357 372 334 q 261 380 307 380 q 183 347 216 380 q 154 254 154 313 q 203 147 154 195 q 245 64 245 108 q 230 25 245 44 q 191 0 212 0 z "},"ప":{"ha":841,"x_min":29,"x_max":793,"o":"m 359 189 q 386 279 386 228 q 346 363 386 330 q 253 395 307 395 q 160 363 199 395 q 123 280 123 328 q 157 189 123 231 q 258 147 191 147 q 359 189 326 147 m 432 801 l 459 849 q 500 901 480 889 q 550 912 519 912 q 604 889 581 912 q 627 835 627 870 q 548 725 627 787 l 507 696 l 463 656 q 256 527 316 527 q 114 574 195 527 q 33 681 33 621 q 55 741 33 723 q 108 758 77 758 q 188 678 154 758 q 260 598 222 598 q 432 801 326 598 m 793 280 q 563 0 793 0 q 470 34 507 0 q 424 104 432 68 q 365 35 409 68 q 247 -2 311 -2 q 94 64 158 -2 q 29 230 29 129 q 92 395 29 330 q 266 461 154 461 q 373 429 328 461 q 444 355 419 397 q 467 291 453 338 q 604 160 511 160 q 704 224 671 160 q 725 335 725 268 q 673 448 725 401 q 569 486 627 486 q 525 500 542 486 q 503 540 503 513 q 563 598 503 598 q 731 503 669 598 q 793 280 793 409 z "},"ఫ":{"ha":841,"x_min":29,"x_max":793,"o":"m 359 189 q 386 279 386 228 q 346 363 386 330 q 253 395 307 395 q 160 363 199 395 q 123 280 123 328 q 157 189 123 231 q 258 147 191 147 q 359 189 326 147 m 432 801 l 459 849 q 500 901 480 889 q 550 912 519 912 q 604 889 581 912 q 627 835 627 870 q 548 725 627 787 l 507 696 l 463 656 q 256 527 316 527 q 114 574 195 527 q 33 681 33 621 q 55 741 33 723 q 108 758 77 758 q 188 678 154 758 q 260 598 222 598 q 432 801 326 598 m 422 17 q 500 -123 500 -60 q 479 -176 500 -154 q 422 -197 459 -197 q 367 -179 386 -197 q 343 -125 343 -162 q 367 -54 343 -89 q 422 17 390 -19 m 793 280 q 563 0 793 0 q 470 34 507 0 q 424 104 432 68 q 365 35 409 68 q 247 -2 311 -2 q 94 64 158 -2 q 29 230 29 129 q 92 395 29 330 q 266 461 154 461 q 373 429 328 461 q 444 355 419 397 q 467 291 453 338 q 604 160 511 160 q 704 224 671 160 q 725 335 725 268 q 673 448 725 401 q 569 486 627 486 q 525 500 542 486 q 503 540 503 513 q 563 598 503 598 q 731 503 669 598 q 793 280 793 409 z "},"బ":{"ha":822,"x_min":29,"x_max":774,"o":"m 405 89 q 226 0 351 0 q 89 48 149 0 q 29 185 29 96 q 201 355 29 324 q 301 387 266 367 q 336 449 336 407 q 307 513 336 492 q 247 534 282 534 q 191 525 212 534 q 158 482 158 511 q 167 458 158 475 q 176 426 176 442 q 160 401 176 411 q 110 386 143 386 q 55 410 77 386 q 33 465 33 434 q 95 573 33 534 q 219 608 145 608 q 345 567 293 608 q 397 455 397 527 q 233 299 397 340 q 123 216 123 270 q 170 158 123 174 q 264 147 199 147 q 341 177 303 147 q 390 260 390 210 q 392 282 390 274 q 410 291 397 291 q 430 282 422 291 q 434 253 434 270 q 465 176 434 201 q 552 147 496 147 q 673 216 631 147 q 708 337 708 268 q 664 455 708 405 q 546 505 617 505 q 485 516 500 505 q 471 552 471 527 q 538 598 471 598 q 702 507 631 598 q 774 302 774 417 q 731 108 774 187 q 556 0 675 0 q 449 31 492 0 q 405 89 424 50 z "},"భ":{"ha":895,"x_min":29,"x_max":895,"o":"m 415 0 q 484 -123 484 -69 q 464 -176 484 -154 q 409 -197 444 -197 q 328 -125 328 -197 q 355 -44 328 -89 q 407 17 372 -19 l 415 0 m 708 336 q 565 527 708 527 l 529 527 q 382 571 463 527 q 301 675 301 615 q 328 737 301 718 q 376 754 347 754 q 456 676 422 754 q 529 598 490 598 q 704 801 596 598 l 727 845 q 768 895 748 883 q 818 907 787 907 q 872 885 849 907 q 895 831 895 864 q 816 720 895 781 l 775 691 l 737 658 q 642 583 685 611 q 721 513 689 561 q 783 306 783 430 q 729 98 783 181 q 558 0 667 0 q 405 89 449 0 q 226 0 351 0 q 89 48 149 0 q 29 177 29 96 q 216 361 29 326 q 336 444 336 380 q 309 511 336 490 q 246 527 284 527 q 191 523 208 527 q 158 482 158 511 q 167 458 158 475 q 176 426 176 442 q 160 401 176 411 q 110 386 143 386 q 55 410 77 386 q 33 465 33 434 q 95 569 33 532 q 218 598 143 598 q 345 561 293 598 q 397 455 397 525 q 233 299 397 340 q 123 216 123 270 q 170 158 123 174 q 264 147 199 147 q 343 177 303 147 q 390 260 390 210 q 392 282 390 274 q 410 291 397 291 q 430 282 422 291 q 434 253 434 270 q 465 176 434 201 q 552 147 496 147 q 673 216 631 147 q 708 336 708 268 z "},"మ":{"ha":1233,"x_min":29,"x_max":1184,"o":"m 359 189 q 386 279 386 228 q 346 363 386 330 q 253 395 307 395 q 160 363 199 395 q 123 280 123 328 q 157 189 123 231 q 258 147 191 147 q 359 189 326 147 m 882 552 q 949 598 882 598 q 1113 507 1042 598 q 1184 302 1184 417 q 1136 106 1184 187 q 945 -4 1074 -4 q 816 50 860 -4 q 783 116 793 79 q 772 96 777 106 q 586 0 708 0 q 476 34 519 0 q 424 104 432 68 q 360 34 409 68 q 247 0 311 0 q 95 66 158 0 q 29 230 29 129 q 92 395 29 330 q 266 461 154 461 q 373 429 328 461 q 444 355 419 397 q 467 291 453 338 q 604 160 511 160 q 698 195 660 160 q 745 331 745 241 q 689 474 745 421 q 548 527 633 527 l 299 527 q 158 571 233 527 q 73 679 73 619 q 100 741 73 720 q 150 754 120 754 q 230 673 195 754 q 303 598 264 598 q 476 801 368 598 l 502 847 q 542 898 523 885 q 592 910 561 910 q 644 887 623 910 q 667 831 667 866 q 588 721 667 783 l 548 693 l 523 669 q 430 598 463 619 l 556 598 q 745 517 664 598 q 826 311 826 436 q 816 210 826 257 q 944 147 862 147 q 1074 216 1026 147 q 1119 339 1119 272 q 1074 455 1119 405 q 957 505 1028 505 q 896 516 910 505 q 882 552 882 527 z "},"య":{"ha":1499,"x_min":29,"x_max":1451,"o":"m 530 210 q 588 348 588 268 q 525 477 588 428 q 359 527 461 527 q 195 473 257 527 q 137 335 137 419 q 194 197 137 251 q 359 143 251 143 q 530 210 467 143 m 1082 210 q 1210 147 1128 147 q 1343 216 1292 147 q 1385 339 1385 272 q 1341 455 1385 405 q 1223 505 1294 505 q 1162 516 1177 505 q 1148 552 1148 527 q 1215 598 1148 598 q 1380 507 1310 598 q 1451 302 1451 417 q 1404 106 1451 187 q 1211 -4 1343 -4 q 1082 50 1127 -4 q 1049 120 1059 79 q 1034 98 1044 108 q 833 0 966 0 q 713 39 766 0 q 639 139 660 77 q 529 39 600 73 q 365 0 457 0 q 118 89 210 0 q 29 297 29 170 q 118 507 29 424 q 358 598 208 598 q 598 507 507 598 q 681 291 681 421 l 681 270 q 730 180 689 214 q 852 147 772 147 q 982 212 932 147 q 1024 337 1024 264 q 976 468 1024 409 q 860 527 928 527 l 841 527 q 783 527 795 529 l 768 527 q 627 569 702 527 q 540 675 540 615 q 563 736 540 718 q 615 754 586 754 q 695 676 662 754 q 768 598 729 598 q 943 801 835 598 l 966 845 q 1007 895 988 883 q 1057 907 1026 907 q 1110 885 1088 907 q 1132 831 1132 864 q 1055 720 1132 781 l 1015 691 l 976 658 q 895 592 932 621 q 1022 511 968 579 q 1092 299 1092 424 q 1082 210 1092 253 z "},"ర":{"ha":752,"x_min":29,"x_max":704,"o":"m 530 210 q 588 348 588 268 q 525 477 588 428 q 359 527 461 527 q 195 473 257 527 q 137 335 137 419 q 194 197 137 251 q 359 143 251 143 q 530 210 467 143 m 459 586 q 598 507 540 565 q 681 296 681 421 q 594 86 681 172 q 359 0 507 0 q 118 89 210 0 q 29 297 29 170 q 118 507 29 424 q 203 565 154 544 q 199 569 201 567 q 112 675 112 615 q 135 736 112 718 q 187 754 158 754 q 267 676 233 754 q 340 598 301 598 q 515 801 407 598 l 538 845 q 579 895 559 883 q 629 907 598 907 q 682 885 660 907 q 704 831 704 864 q 627 720 704 781 l 586 691 l 548 658 q 459 586 498 615 z "},"ఱ":{"ha":831,"x_min":29,"x_max":783,"o":"m 233 407 q 299 461 299 407 q 281 502 299 482 q 235 521 262 521 q 190 503 208 521 q 172 461 172 484 q 192 422 172 438 q 233 407 212 407 m 224 284 q 268 328 224 328 l 438 328 q 431 360 449 322 q 413 432 413 397 q 460 549 413 502 q 580 596 507 596 q 718 515 652 596 q 783 301 783 434 q 720 84 783 168 q 546 0 658 0 q 450 27 498 0 q 394 89 403 54 q 341 26 380 52 q 247 0 303 0 q 87 83 147 0 q 29 292 29 166 q 87 509 29 419 q 235 596 149 596 q 335 555 293 596 q 376 458 376 513 q 333 369 376 403 q 240 336 289 336 q 160 357 191 336 q 122 426 123 386 q 96 322 96 392 q 134 198 96 253 q 251 143 172 143 q 338 161 309 143 q 367 199 367 179 q 375 229 367 218 q 395 239 384 239 q 417 229 407 239 q 426 197 426 218 q 452 154 426 176 q 532 133 478 133 q 677 187 631 133 q 714 310 714 235 q 677 442 714 384 q 573 509 639 509 q 509 478 534 509 q 484 421 484 448 q 500 373 484 395 q 542 351 515 351 q 600 297 600 351 q 577 255 600 268 q 538 241 561 241 l 268 241 q 233 251 245 241 q 224 284 224 260 z "},"ల":{"ha":818,"x_min":29,"x_max":770,"o":"m 187 533 q 176 523 187 533 q 164 484 164 513 q 187 435 164 455 q 243 415 210 415 q 300 433 276 415 q 324 484 324 451 q 300 535 324 517 q 243 554 276 554 q 187 533 210 554 m 96 363 q 405 154 96 154 q 628 204 552 154 q 704 368 704 255 q 659 480 704 434 q 542 527 613 527 q 480 536 496 527 q 467 573 467 548 q 484 610 467 598 q 534 619 503 619 q 700 541 631 619 q 770 347 770 463 q 677 95 770 187 q 404 0 579 0 q 131 89 230 0 q 29 334 29 176 q 79 519 29 442 q 268 621 143 621 q 368 590 326 621 q 417 486 417 552 q 369 380 417 421 q 251 340 322 340 q 176 357 212 340 q 112 436 129 384 q 96 363 96 397 z "},"ళ":{"ha":706,"x_min":29,"x_max":745,"o":"m 185 557 q 139 541 154 557 q 123 503 123 525 q 143 469 123 482 q 187 455 162 455 q 231 469 212 455 q 249 504 249 482 q 232 542 249 527 q 185 557 216 557 m 457 291 q 333 314 409 314 q 212 289 257 314 q 160 215 160 264 q 211 142 160 166 q 332 118 262 118 q 456 145 401 118 q 511 220 511 172 q 457 291 511 268 m 484 345 q 611 204 611 318 q 530 60 611 120 q 335 0 449 0 q 138 47 220 0 q 56 188 56 95 q 141 326 56 282 q 63 368 96 336 q 29 462 29 401 q 73 560 29 523 q 185 598 118 598 q 290 570 253 598 q 328 497 328 542 q 292 424 328 451 q 216 397 257 397 q 95 449 127 397 q 160 380 95 397 q 289 367 206 367 q 426 386 372 367 q 511 475 511 415 q 463 523 511 509 q 433 527 453 527 q 405 530 413 527 q 307 571 357 536 q 233 679 233 617 q 257 739 233 720 q 297 754 270 754 q 368 675 338 754 q 430 598 395 598 q 583 802 488 598 l 602 847 q 639 899 619 885 q 680 910 652 910 q 725 887 708 910 q 745 825 745 866 q 677 721 745 783 l 640 693 l 610 660 q 530 586 565 615 q 569 552 556 573 q 590 482 590 523 q 484 345 590 382 z "},"ఴ":{"ha":806,"x_min":29,"x_max":758,"o":"m 230 409 q 297 465 297 409 q 276 507 297 488 q 231 527 258 527 q 186 508 204 527 q 168 466 168 490 q 189 425 168 442 q 230 409 210 409 m 490 465 q 557 409 490 409 q 598 425 577 409 q 619 466 619 442 q 601 508 619 490 q 556 527 583 527 q 511 507 529 527 q 490 465 490 488 m 395 228 q 421 197 421 228 q 451 146 421 166 q 540 125 482 125 q 658 185 619 125 q 696 323 696 245 q 667 444 696 401 q 632 372 664 397 q 551 347 600 347 q 460 381 502 347 q 419 464 419 415 q 457 556 419 513 q 554 598 496 598 q 700 509 642 598 q 758 293 758 421 q 701 83 758 166 q 544 0 644 0 q 449 27 488 0 q 395 96 413 54 l 394 98 l 392 96 q 337 27 374 54 q 243 0 299 0 q 86 83 143 0 q 29 293 29 166 q 87 509 29 421 q 233 598 145 598 q 330 556 291 598 q 368 464 368 513 q 327 381 368 415 q 236 347 285 347 q 155 372 187 347 q 120 444 123 397 q 91 323 91 401 q 129 185 91 245 q 247 125 168 125 q 336 146 305 125 q 367 197 367 166 q 392 228 367 228 l 395 228 z "},"వ":{"ha":874,"x_min":29,"x_max":826,"o":"m 359 189 q 386 279 386 228 q 346 363 386 330 q 253 395 307 395 q 160 363 199 395 q 123 280 123 328 q 157 189 123 231 q 258 147 191 147 q 359 189 326 147 m 556 598 q 745 517 664 598 q 826 309 826 436 q 767 91 826 181 q 586 0 708 0 q 476 34 519 0 q 424 104 432 68 q 360 34 409 68 q 247 0 311 0 q 95 66 158 0 q 29 230 29 129 q 92 395 29 330 q 266 461 154 461 q 373 429 328 461 q 444 355 419 397 q 467 291 453 338 q 604 160 511 160 q 698 195 660 160 q 745 331 745 241 q 689 474 745 421 q 548 527 633 527 l 299 527 q 158 571 233 527 q 73 679 73 619 q 100 741 73 720 q 150 754 120 754 q 230 673 195 754 q 303 598 264 598 q 476 801 368 598 l 502 847 q 542 898 523 885 q 592 910 561 910 q 644 887 623 910 q 667 831 667 866 q 588 721 667 783 l 548 693 l 523 669 q 430 598 463 619 l 556 598 z "},"శ":{"ha":843,"x_min":29,"x_max":795,"o":"m 698 210 m 407 363 q 357 261 357 322 q 406 172 357 201 q 524 143 455 143 q 645 177 592 143 q 698 268 698 210 q 648 362 698 326 q 526 397 598 397 q 407 363 453 397 m 656 492 q 606 527 656 527 l 372 527 q 349 532 357 527 q 251 571 301 542 q 164 679 164 617 q 191 739 164 720 q 239 754 210 754 q 320 676 285 754 q 392 598 355 598 q 569 802 459 598 l 590 847 q 631 898 611 885 q 681 910 650 910 q 735 888 712 910 q 758 831 758 866 q 679 721 758 783 l 639 693 l 600 660 q 523 598 557 623 l 611 598 q 700 572 667 598 q 733 498 733 546 q 685 421 733 449 q 762 343 735 392 q 795 233 795 293 q 722 68 795 135 q 527 0 650 0 q 330 68 403 0 q 257 210 257 135 q 285 334 257 285 q 359 403 311 380 q 311 404 351 405 q 228 384 270 403 q 166 295 166 353 q 182 258 166 282 q 199 207 199 233 q 179 158 199 181 q 119 135 160 135 q 53 164 77 135 q 29 231 29 193 q 123 404 29 343 q 359 465 218 465 q 424 461 378 465 l 434 461 q 492 459 473 459 l 532 459 q 594 455 573 459 q 639 466 623 455 q 656 492 656 476 z "},"ష":{"ha":858,"x_min":29,"x_max":858,"o":"m 359 189 q 386 279 386 228 q 346 363 386 330 q 253 395 307 395 q 160 363 199 395 q 123 280 123 328 q 157 189 123 231 q 258 147 191 147 q 359 189 326 147 m 432 801 l 459 849 q 500 901 480 889 q 550 912 519 912 q 604 889 581 912 q 627 835 627 870 q 548 725 627 787 l 507 696 l 463 656 q 256 527 316 527 q 114 574 195 527 q 33 681 33 621 q 55 741 33 723 q 108 758 77 758 q 188 678 154 758 q 260 598 222 598 q 432 801 326 598 m 837 -6 q 858 -66 858 -6 q 832 -124 858 -95 q 763 -154 806 -154 q 695 -123 720 -154 q 671 -51 671 -93 q 689 31 671 -10 q 583 0 640 0 q 482 27 525 0 q 424 104 434 54 q 365 35 409 68 q 247 -2 311 -2 q 94 64 158 -2 q 29 230 29 129 q 92 395 29 330 q 266 461 154 461 q 373 429 328 461 q 444 355 419 397 q 467 287 453 336 q 604 160 500 160 q 727 318 727 160 q 677 444 727 401 q 569 486 627 486 q 525 500 542 486 q 503 540 503 513 q 563 598 503 598 q 731 503 669 598 q 793 280 793 409 q 774 142 793 201 q 754 52 754 83 q 771 3 754 21 q 804 -15 787 -15 q 837 -6 822 -15 z "},"స":{"ha":845,"x_min":29,"x_max":797,"o":"m 430 801 l 455 849 q 496 901 476 889 q 546 912 515 912 q 600 889 577 912 q 623 835 623 870 q 542 725 623 787 l 503 696 l 459 656 q 253 527 314 527 q 110 574 191 527 q 29 681 29 621 q 51 741 29 723 q 104 758 73 758 q 184 678 150 758 q 257 598 218 598 q 430 801 322 598 m 191 0 q 29 201 29 0 q 92 376 29 307 q 270 446 154 446 q 405 394 355 446 q 459 281 455 343 q 480 191 463 218 q 574 149 507 149 q 685 190 640 149 q 729 336 729 231 q 677 448 729 401 q 571 486 629 486 q 529 500 546 486 q 507 542 507 513 q 525 584 507 571 q 565 598 538 598 q 737 500 673 598 q 797 284 797 411 q 732 79 797 156 q 552 2 667 2 q 412 49 467 2 q 357 166 357 96 q 365 218 357 183 q 372 293 372 253 q 338 357 372 334 q 261 380 307 380 q 183 347 216 380 q 154 254 154 313 q 203 147 154 195 q 245 64 245 108 q 230 25 245 44 q 191 0 212 0 z "},"హ":{"ha":1310,"x_min":29,"x_max":1262,"o":"m 432 801 l 459 849 q 500 901 480 889 q 550 912 519 912 q 604 889 581 912 q 627 835 627 870 q 548 725 627 787 l 507 696 l 463 656 q 256 527 316 527 q 114 574 195 527 q 33 681 33 621 q 55 741 33 723 q 108 758 77 758 q 188 678 154 758 q 260 598 222 598 q 432 801 326 598 m 922 384 q 1058 436 970 436 q 1200 370 1146 436 q 1154 451 1200 413 q 1051 490 1107 490 l 739 490 q 793 280 793 401 q 563 0 793 0 q 470 34 507 0 q 424 104 432 68 q 365 35 409 68 q 247 -2 311 -2 q 94 64 158 -2 q 29 230 29 129 q 92 395 29 330 q 266 461 154 461 q 373 429 328 461 q 444 355 419 397 q 467 291 453 338 q 604 160 511 160 q 704 224 671 160 q 725 335 725 268 q 673 448 725 401 q 569 486 627 486 q 525 500 542 486 q 503 540 503 513 q 563 598 503 598 l 1028 598 q 1202 516 1142 598 q 1262 313 1262 434 q 1208 125 1262 193 q 1069 56 1157 56 q 922 108 980 56 q 868 247 868 160 q 922 384 868 334 m 359 189 q 386 279 386 228 q 346 363 386 330 q 253 395 307 395 q 160 363 199 395 q 123 280 123 328 q 157 189 123 231 q 258 147 191 147 q 359 189 326 147 m 1142 351 q 1067 378 1113 378 q 990 350 1020 378 q 959 278 959 322 q 988 207 959 233 q 1062 181 1017 181 q 1140 206 1107 181 q 1173 279 1173 231 q 1142 351 1173 326 z "},"ఽ":{"ha":889,"x_min":29,"x_max":841,"o":"m 79 262 q 204 309 129 309 q 334 340 278 309 q 388 415 388 374 q 314 540 388 492 l 322 496 q 280 397 322 438 q 183 357 243 357 q 83 391 123 357 q 42 480 42 424 q 95 581 42 536 q 230 627 145 627 q 386 565 314 627 q 451 421 451 503 q 376 287 451 340 q 193 237 303 241 q 128 214 152 237 q 103 159 104 191 q 134 109 102 127 q 216 87 166 91 l 789 87 q 827 71 812 87 q 841 36 841 56 q 828 4 841 15 q 793 -15 816 -10 l 206 -15 q 83 37 133 -15 q 30 152 31 83 q 79 262 29 222 m 245 443 q 257 454 245 443 q 268 496 268 465 q 246 550 268 527 q 191 573 224 573 q 138 550 158 573 q 118 496 118 527 q 139 443 118 465 q 191 421 160 421 q 245 443 222 421 z "},"ా":{"ha":893,"x_min":-172,"x_max":853,"o":"m 801 162 q 661 93 750 93 q 516 145 571 93 q 461 283 461 197 q 512 421 461 368 q 646 473 563 473 q 727 455 691 473 q 793 407 764 442 q 747 488 793 449 q 642 527 700 527 l -108 527 q -153 542 -135 527 q -172 580 -172 557 q -152 617 -172 602 q -108 635 -135 635 l 621 635 q 799 548 735 635 q 853 350 853 471 q 801 162 853 230 m 727 241 q 764 315 764 268 q 734 389 764 363 q 658 415 704 415 q 582 388 611 415 q 552 315 552 361 q 581 244 552 270 q 655 218 610 218 q 727 241 700 218 z "},"ి":{"ha":0,"x_min":-185,"x_max":257,"o":"m -176 758 q 37 889 -176 889 q 193 843 133 889 q 257 706 253 791 q 187 581 257 635 q 2 527 114 527 q -131 552 -77 530 q -185 598 -185 573 q -176 621 -185 611 q -148 631 -166 631 q -100 614 -129 631 q -2 598 -71 598 q 128 634 68 598 q 189 721 189 669 q 158 795 189 774 q 160 774 160 787 q 104 683 160 718 q -8 656 56 656 q -123 682 -71 656 q -176 758 -176 708 m -27 737 q 26 720 -4 720 q 79 737 56 720 q 100 774 100 750 q 81 814 100 799 q 29 829 62 829 q -26 813 -4 829 q -48 774 -48 797 q -27 737 -48 750 z "},"ీ":{"ha":0,"x_min":-185,"x_max":322,"o":"m -131 552 q -185 597 -185 573 q -157 621 -185 621 q -100 610 -129 621 q 0 598 -71 598 q 130 628 71 598 q 189 711 189 658 q 158 785 189 764 q 160 766 160 777 q 108 678 160 710 q -8 646 56 646 q -123 672 -71 646 q -176 758 -176 698 q -118 849 -176 818 q 31 882 -60 880 q 4 953 4 922 q 46 1046 4 1011 q 164 1084 89 1084 q 281 1044 239 1084 q 322 945 322 1003 q 314 899 322 920 q 282 856 303 880 l 253 862 q 260 899 260 878 q 160 976 260 976 q 106 958 129 976 q 83 913 83 939 q 95 876 83 887 q 212 817 168 862 q 257 698 257 772 q 185 576 257 625 q 2 527 114 527 q -131 552 -77 530 m 100 766 q 25 820 100 820 q -26 804 -4 820 q -48 766 -48 789 q -26 726 -48 743 q 26 710 -4 710 q 78 726 56 710 q 100 766 100 743 z "},"ు":{"ha":359,"x_min":-96,"x_max":313,"o":"m 10 552 q 77 598 10 598 q 242 507 172 598 q 313 302 313 417 q 266 106 313 187 q 73 -4 203 -4 q -54 48 -12 -4 q -96 183 -96 100 l -75 272 q -32 184 -75 222 q 73 147 12 147 q 203 216 154 147 q 247 339 247 272 q 203 455 247 405 q 85 505 156 505 q 24 516 39 505 q 10 552 10 527 z "},"ూ":{"ha":806,"x_min":-110,"x_max":760,"o":"m 419 384 q 554 436 467 436 q 698 370 640 436 q 652 451 698 413 q 548 490 604 490 l 258 490 q 316 295 316 403 q 270 106 316 187 q 77 -4 208 -4 q -62 44 -10 -4 q -110 176 -110 95 l -71 237 q -28 174 -71 201 q 77 147 15 147 q 208 216 158 147 q 251 339 251 272 q 206 455 251 405 q 89 505 160 505 q 28 516 42 505 q 14 552 14 527 q 81 598 14 598 l 525 598 q 702 511 640 598 q 760 313 760 434 q 706 125 760 193 q 566 56 656 56 q 421 108 476 56 q 367 247 367 160 q 419 384 367 334 m 484 349 q 457 278 457 322 q 486 207 457 233 q 559 181 515 181 q 637 206 604 181 q 669 279 669 231 q 639 352 669 326 q 563 378 610 378 q 484 349 517 378 z "},"ృ":{"ha":276,"x_min":-187,"x_max":276,"o":"m 276 -33 q 235 -253 276 -160 q 10 -403 168 -403 q -138 -346 -89 -403 q -187 -208 -187 -289 q -147 -73 -187 -127 q -25 -15 -100 -15 q 59 -48 29 -15 q 89 -121 89 -81 q 50 -187 89 -160 q -27 -222 12 -214 q -141 -149 -108 -235 q -125 -214 -147 -168 q -12 -262 -83 -262 q 154 -181 87 -264 q 214 0 214 -85 q 178 156 214 85 q 87 243 143 228 l 66 249 q 25 257 44 253 q 12 324 -19 282 q 106 313 42 345 q 166 268 145 291 q 276 -33 276 145 m -2 -116 q -52 -73 -2 -73 q -83 -87 -68 -73 q -98 -118 -98 -100 q -78 -149 -98 -135 q -46 -164 -58 -164 q -18 -149 -35 -164 q -2 -116 -2 -135 z "},"ౄ":{"ha":671,"x_min":-102,"x_max":658,"o":"m 426 91 q 502 15 426 15 q 554 34 530 15 q 577 86 577 52 q 556 138 577 120 q 503 156 534 156 q 448 137 471 156 q 426 91 426 116 m 64 -164 q 68 -131 73 -150 q 46 -103 64 -112 q 12 -97 29 -95 q -15 -116 -6 -100 q -21 -149 -25 -131 q -3 -179 -17 -168 q 34 -186 12 -191 q 64 -164 56 -181 m 95 255 l 46 255 q 1 288 6 255 q 6 333 -4 322 q 39 347 15 343 l 457 347 q 607 279 556 347 q 658 114 658 210 q 617 -37 658 17 q 506 -91 577 -91 q 392 -50 436 -91 q 349 60 349 -8 q 389 168 349 127 q 496 208 428 208 q 556 199 530 208 q 604 160 581 185 q 564 225 604 195 q 476 255 525 255 l 201 255 q 203 253 203 255 q 299 23 276 152 q 299 -206 322 -106 q 123 -394 266 -368 q -35 -351 33 -409 q -89 -251 -83 -299 q -79 -122 -102 -176 q 15 -41 -52 -54 q 96 -64 62 -35 q 140 -138 131 -89 q 127 -220 149 -187 q 65 -259 106 -253 q -8 -249 23 -266 q -42 -206 -33 -231 q 2 -280 -37 -251 q 89 -287 39 -297 q 235 -170 199 -270 q 248 32 268 -85 q 162 212 228 149 q 95 255 127 247 z "},"ె":{"ha":0,"x_min":-312,"x_max":314,"o":"m -312 791 q -231 853 -312 853 l 172 853 q 264 822 228 853 q 314 708 314 783 q 264 581 314 633 q 147 527 216 527 l -108 527 q -143 562 -143 527 q -108 598 -143 598 l 172 598 q 216 619 197 598 q 233 672 233 644 q 216 717 233 700 q 174 733 199 733 l -231 733 q -295 748 -276 733 q -312 791 -312 760 z "},"ే":{"ha":0,"x_min":-311,"x_max":305,"o":"m 228 982 q 164 1053 228 1053 q 114 1031 133 1053 q 95 971 95 1009 q 116 897 95 934 q 154 843 143 860 q 251 790 212 835 q 289 684 289 745 q 245 583 289 623 q 139 542 201 542 l -31 542 q -51 550 -42 542 q -60 569 -60 557 q -35 598 -60 598 l 141 598 q 199 618 174 598 q 224 674 224 639 q 201 734 224 710 q 145 758 177 758 l -268 758 q -311 795 -311 758 q -302 829 -311 814 q -276 843 -293 843 l 98 843 q 35 973 35 903 q 69 1082 35 1044 q 165 1121 104 1121 q 265 1079 226 1121 q 305 997 305 1038 q 258 957 305 957 q 228 982 237 957 z "},"ై":{"ha":922,"x_min":87,"x_max":820,"o":"m 131 -309 q 87 -218 87 -272 q 121 -131 87 -164 q 212 -98 154 -98 q 301 -125 270 -98 q 332 -199 332 -152 q 325 -231 332 -212 q 305 -255 318 -249 l 756 -255 q 806 -264 793 -255 q 820 -298 820 -274 q 806 -333 820 -322 q 762 -343 793 -343 l 257 -343 q 131 -309 179 -343 m 147 -197 q 195 -241 147 -241 q 226 -229 212 -241 q 239 -196 239 -216 q 226 -163 239 -176 q 192 -150 212 -150 q 159 -164 172 -150 q 147 -197 147 -177 m 635 598 q 696 644 696 598 q 677 687 696 669 q 637 698 660 698 l 274 698 q 212 714 230 698 q 195 756 195 725 q 212 802 195 787 q 274 816 230 816 l 635 816 q 733 782 689 816 q 777 668 777 748 q 716 552 777 588 q 610 527 673 527 l 355 527 q 318 562 318 527 q 355 598 318 598 l 635 598 z "},"ొ":{"ha":893,"x_min":-285,"x_max":855,"o":"m 241 816 q 432 658 374 816 q 505 733 455 704 q 610 766 556 766 q 789 682 723 766 q 855 471 855 598 q 801 274 855 343 q 661 204 750 204 q 516 257 571 204 q 461 395 461 309 q 512 540 461 482 q 648 598 563 598 q 793 527 733 598 q 747 608 793 571 q 624 644 696 644 q 505 621 552 644 q 461 563 465 598 q 453 540 461 550 q 429 527 446 527 q 407 540 413 527 q 401 563 401 550 q 357 657 401 615 q 241 698 313 698 l -143 698 q -174 685 -160 698 q -185 651 -185 669 q -171 615 -185 633 q -122 598 -156 598 l 42 598 l 42 527 l -156 527 q -245 572 -204 527 q -285 675 -285 617 q -244 774 -285 733 q -131 816 -203 816 l 241 816 m 727 353 q 764 427 764 380 q 735 501 764 475 q 659 527 706 527 q 582 500 611 527 q 552 428 552 473 q 581 357 552 384 q 655 330 610 330 q 727 353 700 330 z "},"ో":{"ha":897,"x_min":-295,"x_max":855,"o":"m 795 812 q 693 889 795 889 q 638 869 660 889 q 615 811 615 849 q 635 754 615 774 q 798 664 743 747 q 853 462 853 581 q 802 274 853 343 q 661 204 750 204 q 515 257 571 204 q 459 395 459 309 q 513 540 459 482 q 646 598 563 598 q 727 581 691 598 q 791 527 762 561 q 747 608 791 571 q 624 644 696 644 q 505 621 552 644 q 459 563 463 598 q 453 540 459 550 q 428 527 444 527 q 401 571 401 527 q 356 657 401 615 q 241 698 311 698 l -152 698 q -183 685 -170 698 q -195 651 -195 669 q -180 615 -195 633 q -131 598 -166 598 l 60 598 l 60 527 l -166 527 q -255 575 -214 527 q -295 676 -295 619 q -254 774 -295 733 q -141 816 -212 816 l 241 816 q 374 758 322 816 q 432 658 405 725 q 488 718 451 696 q 575 750 523 743 q 536 859 536 795 q 579 961 536 924 q 696 997 621 997 q 813 957 772 997 q 855 858 855 916 q 845 812 855 835 q 814 772 835 795 l 785 777 q 795 812 795 791 m 579 500 q 552 428 552 473 q 581 357 552 384 q 654 330 610 330 q 731 355 698 330 q 764 427 764 380 q 733 500 764 475 q 658 527 704 527 q 579 500 611 527 z "},"ౌ":{"ha":893,"x_min":-272,"x_max":853,"o":"m 125 598 q 166 635 166 598 q 158 669 166 656 q 135 683 149 683 l -208 683 q -257 693 -241 683 q -272 738 -272 702 q -257 782 -272 774 q -208 791 -241 791 l 621 791 q 795 706 737 791 q 853 501 853 621 q 802 311 853 380 q 661 241 750 241 q 516 293 571 241 q 461 432 461 345 q 512 570 461 519 q 651 621 563 621 q 791 557 739 621 q 745 643 791 604 q 617 683 698 683 l 237 683 q 255 652 251 675 q 260 619 260 635 q 233 550 260 573 q 164 527 210 527 l -141 527 q -164 536 -154 527 q -176 562 -176 544 q -164 588 -176 581 q -139 598 -154 598 l 125 598 m 733 536 q 658 563 704 563 q 582 536 611 563 q 552 465 552 509 q 581 394 552 421 q 654 367 610 367 q 731 393 698 367 q 764 465 764 419 q 733 536 764 511 z "},"్":{"ha":0,"x_min":-191,"x_max":403,"o":"m 349 914 q 403 864 403 914 q 349 802 403 802 l -48 802 q -87 772 -87 802 q -74 746 -87 754 q -44 737 -62 737 l 154 737 q 177 725 166 737 q 187 699 187 714 q 177 672 187 685 q 154 660 166 660 l -44 660 q -85 627 -85 660 q -48 598 -85 598 l 85 598 q 108 586 98 598 q 120 561 120 577 q 109 536 120 546 q 83 527 98 527 l -83 527 q -150 554 -120 527 q -181 621 -181 581 q -143 693 -181 662 q -177 729 -164 696 q -191 802 -191 762 q -153 878 -191 841 q -60 914 -116 914 l 349 914 z "},"ౕ":{"ha":307,"x_min":0,"x_max":307,"o":"m 0 957 q 42 1046 0 1009 q 154 1084 85 1084 q 265 1038 224 1084 q 307 934 307 992 q 299 887 307 907 q 268 845 287 866 l 239 849 q 245 897 245 866 q 218 955 245 928 q 152 982 189 982 q 95 961 116 982 q 73 913 73 939 q 85 864 73 887 q 108 835 96 841 l 44 835 q 13 892 25 855 q 0 957 0 930 z "},"ౖ":{"ha":23,"x_min":193,"x_max":895,"o":"m 467 -210 l 457 -264 l 829 -264 q 881 -275 866 -264 q 895 -314 895 -285 q 833 -363 895 -363 l 390 -363 q 268 -326 316 -363 q 222 -187 195 -264 q 255 -141 231 -160 q 347 -104 289 -104 q 467 -210 467 -104 m 330 -251 q 370 -208 370 -251 q 332 -166 370 -166 q 300 -177 313 -166 q 287 -208 287 -189 q 300 -239 287 -228 q 330 -251 313 -251 z "},"ౘ":{"ha":891,"x_min":29,"x_max":843,"o":"m 116 866 q 52 916 52 866 q 68 958 52 947 q 120 968 83 968 l 502 968 q 497 989 503 968 q 490 1022 490 1009 q 521 1102 490 1073 q 612 1132 552 1132 q 708 1094 673 1132 q 747 1028 733 1074 q 694 906 743 945 q 569 866 646 866 l 116 866 m 631 982 q 675 1026 675 982 q 664 1057 675 1044 q 631 1069 650 1069 q 600 1057 611 1069 q 588 1026 588 1046 q 602 992 588 1007 q 631 982 611 982 m 488 276 q 511 240 511 276 q 542 179 511 204 q 626 154 573 154 q 725 200 679 154 q 772 330 772 245 q 712 471 772 415 q 561 527 652 527 l 469 527 q 334 569 405 529 q 249 675 249 615 q 274 737 249 718 q 324 754 293 754 q 403 676 368 754 q 476 598 438 598 q 652 801 542 598 l 675 845 q 716 895 696 883 q 766 907 735 907 q 819 885 797 907 q 841 831 841 864 q 762 720 841 781 l 721 691 l 685 658 q 610 596 642 623 q 781 491 720 586 q 843 269 843 395 q 777 68 843 143 q 625 0 716 0 q 482 79 534 0 q 327 0 421 0 q 176 56 233 0 q 125 183 125 108 q 141 253 125 220 q 179 316 154 289 l 83 316 q 42 326 56 316 q 29 363 29 336 q 87 415 29 415 l 320 415 q 361 402 347 415 q 374 369 374 390 q 357 338 374 349 q 314 326 340 326 q 233 299 258 326 q 212 243 212 280 q 241 183 212 206 q 331 152 276 152 q 426 177 386 152 q 467 238 467 201 q 488 276 467 276 z "},"ౙ":{"ha":799,"x_min":29,"x_max":750,"o":"m 116 750 q 52 801 52 750 q 68 842 52 831 q 120 853 83 853 l 502 853 q 497 873 503 853 q 490 907 490 893 q 521 987 490 957 q 612 1017 552 1017 q 708 978 673 1017 q 747 912 733 959 q 694 790 743 829 q 569 750 646 750 l 116 750 m 631 866 q 675 910 675 866 q 664 941 675 928 q 631 953 650 953 q 600 941 611 953 q 588 910 588 930 q 602 876 588 891 q 631 866 611 866 m 567 519 l 494 513 q 454 525 475 513 q 434 562 434 536 q 461 600 434 588 q 545 615 484 615 q 654 577 606 615 q 704 480 704 540 q 657 382 704 421 q 548 343 610 343 q 384 397 430 343 q 238 300 355 336 q 122 212 122 264 q 230 143 122 143 q 322 166 278 143 q 382 255 382 197 q 407 285 382 285 q 426 243 426 285 q 461 174 426 201 q 544 149 490 149 q 633 174 598 149 q 667 231 667 199 q 654 275 667 264 q 640 293 640 285 q 658 311 640 311 q 721 280 698 311 q 750 178 750 245 q 702 60 750 112 q 569 6 648 6 q 407 89 449 6 q 347 31 386 50 q 222 0 297 0 q 88 47 147 0 q 29 181 29 95 q 96 313 29 268 q 195 347 133 338 q 296 386 257 357 q 336 455 336 415 q 310 518 336 496 q 248 540 284 540 q 193 530 212 540 q 162 488 162 517 q 169 466 162 482 q 176 438 176 449 q 110 395 176 395 q 60 419 83 395 q 39 473 39 442 q 94 576 39 540 q 221 611 149 611 q 340 577 293 611 q 395 486 386 546 q 538 397 434 397 q 598 421 577 397 q 617 463 617 438 q 603 503 617 488 q 567 519 588 519 z "},"ౠ":{"ha":2000,"x_min":29,"x_max":1952,"o":"m 1676 349 q 1649 278 1649 322 q 1678 207 1649 233 q 1753 181 1707 181 q 1825 204 1798 181 q 1861 279 1861 231 q 1832 352 1861 326 q 1755 378 1802 378 q 1676 349 1709 378 m 351 181 q 390 252 390 212 q 413 291 390 291 q 426 282 422 291 q 434 253 434 268 q 465 176 434 204 q 556 147 496 147 q 662 201 615 147 q 708 332 708 258 q 660 455 708 405 q 546 505 611 505 q 484 513 502 505 q 471 550 471 525 q 488 584 471 575 q 538 598 505 598 q 705 513 637 598 q 774 309 774 428 q 768 228 774 280 q 829 169 787 191 q 927 147 870 147 q 1030 201 984 147 q 1074 332 1074 258 q 1028 455 1074 405 q 914 505 980 505 q 854 515 870 505 q 837 550 837 525 q 856 584 837 575 q 907 598 874 598 q 1073 513 1005 598 q 1142 309 1142 428 q 1136 228 1142 264 q 1196 169 1155 191 q 1293 147 1236 147 q 1397 201 1350 147 q 1443 332 1443 258 q 1399 455 1443 405 q 1281 505 1352 505 q 1220 516 1235 505 q 1206 552 1206 527 q 1275 598 1206 598 l 1717 598 q 1892 516 1833 598 q 1952 313 1952 434 q 1900 124 1952 193 q 1758 56 1848 56 q 1613 108 1669 56 q 1559 247 1559 160 q 1611 385 1559 334 q 1748 436 1663 436 q 1890 370 1833 436 q 1844 451 1890 413 q 1740 490 1798 490 l 1451 490 q 1508 309 1508 403 q 1445 79 1508 162 q 1271 -4 1385 -4 q 1169 25 1215 -4 q 1092 98 1121 50 q 1015 23 1065 50 q 908 -4 965 -4 q 806 23 851 -4 q 729 95 758 48 q 657 25 704 50 q 558 0 610 0 q 467 24 507 0 q 405 89 426 48 q 226 0 351 0 q 87 54 145 0 q 29 178 29 104 q 73 296 29 253 q 198 353 118 340 q 307 388 278 367 q 336 448 336 409 q 312 510 336 486 q 248 534 287 534 q 183 518 208 534 q 158 488 158 502 q 167 456 158 475 q 176 432 176 438 q 106 386 176 386 q 54 409 77 386 q 33 465 33 432 q 85 566 33 525 q 213 608 137 608 q 343 563 289 608 q 397 457 397 519 q 367 361 397 395 q 254 304 336 326 q 148 264 172 282 q 123 216 123 247 q 264 147 123 147 q 351 181 314 147 z "},"ౡ":{"ha":1576,"x_min":23,"x_max":1543,"o":"m 1416 212 q 1454 287 1454 241 q 1424 360 1454 334 q 1346 386 1393 386 q 1270 359 1300 386 q 1240 286 1240 332 q 1271 216 1240 241 q 1344 189 1298 189 q 1416 212 1389 189 m 384 559 q 563 650 438 650 q 696 604 640 650 q 760 473 760 554 q 752 417 760 442 q 681 280 743 345 q 507 65 507 149 q 664 -62 507 -19 q 702 -66 689 -66 l 733 -66 q 968 87 887 -66 q 1005 258 1005 154 q 887 488 1005 426 q 839 557 839 517 q 880 604 839 596 l 885 604 q 922 606 899 606 l 1310 606 q 1483 524 1424 606 q 1543 321 1543 442 q 1491 133 1543 201 q 1349 66 1439 66 q 1205 118 1260 66 q 1150 257 1150 170 q 1201 394 1150 343 q 1341 444 1252 444 q 1481 380 1429 444 q 1435 460 1481 421 q 1333 500 1389 500 l 1011 500 q 1069 235 1069 384 q 868 -164 1069 -68 q 723 -193 797 -193 q 469 -71 586 -193 q 421 54 421 -4 l 421 68 q 588 293 421 160 q 664 427 664 378 q 619 490 664 476 q 536 502 588 502 q 444 473 484 502 q 399 397 399 438 q 374 357 399 357 q 355 397 355 357 q 239 496 355 496 q 154 459 187 496 q 122 374 122 426 q 150 284 122 322 q 152 278 152 282 q 147 270 152 274 q 131 266 141 266 l 123 266 q 55 319 87 278 q 23 444 23 361 q 80 584 23 527 q 220 642 137 642 q 384 559 340 642 z "},"ౢ":{"ha":17,"x_min":-648,"x_max":-21,"o":"m -432 -166 q -326 -114 -401 -114 q -243 -143 -280 -114 q -206 -229 -206 -172 q -253 -334 -206 -285 q -359 -465 -359 -413 q -264 -540 -359 -513 q -241 -542 -251 -542 l -224 -542 q -83 -449 -131 -542 q -60 -349 -60 -409 q -131 -210 -60 -247 q -160 -170 -160 -193 q -135 -141 -160 -147 l -133 -141 q -27 -293 -60 -141 q -21 -363 -21 -332 q -143 -600 -21 -542 q -230 -617 -183 -617 q -380 -546 -311 -617 q -409 -471 -409 -505 l -409 -461 q -311 -326 -409 -407 q -264 -243 -264 -276 q -349 -201 -264 -201 q -395 -220 -372 -201 q -422 -263 -422 -239 q -438 -287 -422 -287 q -449 -264 -449 -287 q -519 -204 -449 -204 q -569 -228 -552 -204 q -588 -278 -588 -247 q -571 -332 -588 -309 q -571 -336 -571 -334 q -583 -343 -571 -343 l -588 -343 q -594 -341 -592 -341 q -648 -239 -648 -311 q -614 -152 -648 -187 q -536 -118 -581 -118 q -432 -166 -461 -118 z "},"ౣ":{"ha":291,"x_min":-644,"x_max":258,"o":"m 96 -287 q 79 -331 79 -305 q 96 -373 79 -357 q 141 -390 114 -390 q 183 -374 168 -390 q 204 -331 204 -359 q 187 -287 204 -303 q 143 -272 170 -272 q 96 -287 116 -272 m -430 -170 q -324 -116 -399 -116 q -245 -143 -278 -116 q -206 -222 -206 -172 q -212 -255 -206 -239 q -253 -336 -218 -297 q -357 -463 -357 -413 q -264 -538 -357 -513 q -241 -540 -249 -540 l -224 -540 q -83 -449 -131 -540 q -62 -349 -62 -409 q -131 -212 -62 -249 q -160 -171 -160 -195 q -135 -143 -160 -147 q 122 -143 -8 -143 q 226 -193 187 -143 q 258 -311 258 -239 q 228 -422 258 -382 q 144 -463 197 -463 q 58 -432 91 -463 q 25 -350 25 -401 q 55 -268 25 -299 q 136 -237 85 -237 q 222 -276 187 -237 q 195 -230 222 -251 q 133 -204 168 -204 l -58 -204 q -23 -363 -23 -274 q -143 -600 -23 -542 q -230 -615 -185 -615 q -380 -544 -311 -615 q -409 -471 -409 -505 l -409 -461 q -309 -328 -409 -407 q -264 -247 -264 -276 q -286 -211 -264 -218 q -340 -204 -309 -204 q -395 -223 -370 -204 q -421 -265 -421 -241 q -434 -289 -421 -289 q -446 -284 -440 -289 q -448 -257 -448 -276 q -467 -222 -448 -237 q -515 -206 -482 -206 q -567 -230 -548 -206 q -586 -280 -586 -249 q -577 -322 -586 -311 q -567 -336 -567 -334 q -579 -343 -567 -343 l -584 -343 q -622 -315 -600 -343 q -644 -238 -644 -287 q -611 -154 -644 -189 q -532 -120 -577 -120 q -430 -170 -453 -120 z "},"౦":{"ha":725,"x_min":27,"x_max":662,"o":"m 342 610 q 412 610 342 610 q 572 517 482 610 q 662 294 662 424 q 577 68 662 164 q 350 -27 492 -27 q 118 66 208 -27 q 27 289 27 158 q 115 515 27 421 q 342 610 203 610 m 345 100 q 396 100 345 100 q 507 166 448 100 q 567 328 567 231 q 515 484 567 424 q 350 556 457 556 q 183 488 243 556 q 123 326 123 421 q 183 166 123 231 q 345 100 243 100 z "},"౧":{"ha":839,"x_min":27,"x_max":775,"o":"m 775 258 q 709 53 775 137 q 567 -31 642 -31 q 521 10 521 -31 q 554 60 521 31 l 642 100 q 704 239 704 147 q 621 409 704 332 q 402 492 542 492 q 174 415 262 492 q 98 264 98 347 q 156 123 98 181 q 255 56 193 87 q 284 19 280 44 q 224 -31 284 -31 q 98 42 164 -31 q 27 258 27 125 q 135 525 27 430 q 396 610 235 610 q 656 534 557 610 q 775 258 775 440 z "},"౨":{"ha":945,"x_min":27,"x_max":882,"o":"m 521 590 q 785 511 689 590 q 882 296 882 432 q 802 67 882 160 q 571 -27 723 -27 l 27 -27 l 27 89 l 592 89 q 750 150 683 89 q 818 303 818 212 q 771 433 818 367 q 666 500 723 500 q 693 408 693 465 q 639 303 693 351 q 517 255 586 255 q 403 301 448 255 q 359 421 359 347 q 402 530 359 469 q 521 590 446 590 m 523 311 q 545 311 523 311 q 602 340 567 311 q 637 415 637 370 q 606 489 637 459 q 528 519 575 519 q 451 493 480 519 q 422 419 422 467 q 450 340 422 370 q 523 311 478 311 z "},"౩":{"ha":637,"x_min":27,"x_max":573,"o":"m 573 145 q 507 20 573 68 q 303 -27 442 -27 q 37 64 114 -27 l 27 85 q 58 133 27 120 q 98 130 81 139 q 145 91 116 122 q 212 41 170 68 q 320 19 260 19 q 429 48 380 19 q 478 123 478 77 q 442 201 478 170 q 349 231 405 231 l 210 231 l 210 332 l 326 332 q 478 442 478 332 q 439 522 478 488 q 338 556 399 556 q 237 530 276 556 q 199 468 199 505 q 150 430 199 430 l 114 434 q 98 469 104 444 q 159 570 98 530 q 322 610 220 610 q 490 563 424 610 q 556 453 556 517 q 524 354 556 390 q 424 293 492 318 q 573 145 573 245 z "},"౪":{"ha":679,"x_min":27,"x_max":617,"o":"m 617 519 q 390 224 617 314 q 446 123 446 193 q 405 14 446 54 q 304 -27 365 -27 q 199 10 243 -27 q 160 111 160 50 q 204 212 160 172 q 27 438 27 287 q 57 555 27 507 q 129 602 87 602 q 177 542 177 602 q 150 480 177 521 q 123 409 129 438 q 168 299 123 343 q 288 255 216 255 q 414 286 361 255 q 499 369 467 318 q 530 458 530 421 q 515 540 530 496 l 476 600 q 538 667 476 667 q 596 633 565 667 q 617 519 617 592 m 367 137 q 352 184 367 164 q 305 204 338 204 q 239 135 249 204 q 303 64 239 73 q 367 137 367 64 z "},"౫":{"ha":804,"x_min":27,"x_max":743,"o":"m 467 208 q 428 282 467 282 q 357 258 405 282 q 276 208 309 241 l 239 170 l 199 118 l 141 31 q 87 8 123 8 q 39 59 39 8 q 94 173 39 110 q 243 282 149 235 q 204 386 231 343 q 116 476 172 446 q 27 557 29 534 q 81 610 27 610 q 166 559 110 610 q 257 442 208 519 q 295 305 282 380 l 357 322 q 320 442 320 372 q 359 560 320 511 q 454 610 397 610 q 546 557 511 610 q 586 429 586 505 q 538 307 586 353 q 565 277 557 295 q 573 208 573 258 q 579 145 573 158 q 633 19 579 19 q 662 32 644 19 q 679 85 679 44 l 679 118 l 671 152 l 743 152 q 703 20 743 68 q 607 -27 664 -27 q 507 15 550 -27 q 471 135 471 62 l 467 208 m 519 457 q 451 552 519 546 q 401 529 428 552 q 384 453 384 500 q 402 372 384 407 q 453 338 421 338 q 519 457 519 338 z "},"౬":{"ha":916,"x_min":27,"x_max":855,"o":"m 855 -27 l 204 -27 q 79 19 127 -27 q 31 129 31 66 q 127 297 31 251 q 60 349 93 307 q 27 455 27 392 q 73 559 27 519 q 255 610 123 610 l 255 552 q 149 524 183 552 q 114 454 114 496 q 141 390 114 413 q 212 367 168 367 l 492 367 l 492 245 l 228 245 q 157 225 185 245 q 129 173 129 204 q 152 118 129 141 l 185 98 q 228 91 203 91 l 855 91 l 855 -27 z "},"౭":{"ha":714,"x_min":27,"x_max":652,"o":"m 652 164 q 565 23 652 79 q 347 -27 478 -27 q 122 22 216 -27 q 27 164 27 71 q 73 258 27 216 q 349 341 152 341 q 581 446 581 341 q 530 530 581 496 q 407 565 478 565 q 276 530 336 565 q 216 446 216 496 q 168 390 216 395 q 112 442 123 390 q 189 568 112 517 q 385 619 266 619 q 573 571 503 619 q 652 441 652 523 q 569 299 652 359 q 475 262 532 280 q 353 247 397 247 q 164 197 228 247 q 133 145 139 177 q 197 60 133 98 q 322 19 272 19 q 484 53 422 19 q 546 156 546 87 q 563 189 546 181 l 604 204 q 652 164 652 204 z "},"౮":{"ha":909,"x_min":27,"x_max":845,"o":"m 845 496 l 519 496 l 542 438 q 567 276 567 361 q 492 56 567 137 q 304 -25 417 -25 q 109 57 191 -25 q 27 280 27 139 q 80 440 27 367 q 185 513 133 513 q 224 465 224 513 l 189 432 l 141 374 q 114 299 114 334 q 299 89 114 89 q 490 326 490 89 q 448 496 490 428 q 343 610 436 517 l 845 610 l 845 496 z "},"౯":{"ha":916,"x_min":27,"x_max":855,"o":"m 855 492 l 228 492 q 129 417 129 492 q 152 363 129 392 q 228 341 177 341 l 492 341 l 492 222 l 214 222 q 116 137 116 222 q 150 62 116 96 q 255 33 185 33 l 255 -27 q 83 16 139 -27 q 27 137 27 60 q 57 232 27 189 q 127 287 87 276 q 31 446 31 338 q 76 558 31 507 q 204 610 122 610 l 855 610 l 855 492 z "},"౸":{"ha":573,"x_min":41,"x_max":540,"o":"m 181 54 q 374 143 258 73 q 430 201 430 176 q 397 235 430 224 q 309 258 378 243 q 297 257 303 257 l 282 257 q 110 329 179 257 q 41 501 41 401 q 110 669 41 600 q 283 739 179 739 q 455 669 386 739 q 525 503 525 600 q 501 394 525 444 q 440 314 476 343 q 494 282 467 307 q 530 240 521 257 q 540 200 540 224 q 524 150 540 176 q 480 103 507 125 q 422 62 453 81 q 359 28 392 42 q 297 3 326 14 q 239 -19 268 -8 l 181 54 m 417 503 q 375 604 417 565 q 281 642 334 642 q 189 604 228 642 q 150 505 150 565 q 189 411 150 446 q 282 376 228 376 q 405 451 370 376 q 417 503 417 475 z "},"౹":{"ha":388,"x_min":154,"x_max":264,"o":"m 154 729 l 264 729 l 264 19 l 154 19 l 154 729 z "},"౺":{"ha":540,"x_min":69,"x_max":457,"o":"m 231 390 q 278 386 245 386 q 347 407 311 386 l 347 729 l 457 729 l 457 19 l 347 19 l 347 301 q 313 293 343 299 q 249 287 284 287 q 123 338 177 287 q 69 467 69 388 l 69 729 l 179 729 l 179 476 q 231 390 179 409 z "},"౻":{"ha":820,"x_min":69,"x_max":737,"o":"m 556 386 q 629 407 586 386 l 629 729 l 737 729 l 737 19 l 629 19 l 629 301 q 550 287 588 287 q 460 300 500 287 q 403 330 421 313 q 254 287 330 287 q 123 338 177 287 q 69 467 69 388 l 69 729 l 179 729 l 179 476 q 231 390 179 409 q 258 386 245 386 q 319 403 291 386 q 347 457 347 421 l 347 729 l 457 729 l 457 459 q 556 386 457 386 z "},"౼":{"ha":768,"x_min":56,"x_max":743,"o":"m 56 320 l 56 419 l 743 419 l 743 320 l 56 320 z "},"౽":{"ha":893,"x_min":125,"x_max":880,"o":"m 880 19 l 394 19 q 233 35 278 19 q 170 66 189 50 q 125 168 125 102 q 193 270 125 233 q 372 330 243 297 q 476 366 453 355 q 500 400 500 376 q 481 432 500 424 q 424 440 463 440 l 139 440 l 139 536 l 424 536 q 561 500 513 536 q 610 403 610 463 q 421 243 610 272 q 251 193 305 220 q 235 173 235 183 q 242 157 235 162 q 260 149 249 152 q 289 143 272 147 q 359 139 316 139 l 880 139 l 880 19 z "},"౾":{"ha":968,"x_min":125,"x_max":955,"o":"m 336 311 q 125 417 125 311 q 158 497 125 467 q 239 531 191 527 q 314 537 287 536 q 369 541 341 538 q 397 559 397 544 q 392 571 397 567 q 313 581 370 581 l 131 581 l 131 677 l 313 677 q 494 621 457 677 q 507 567 507 602 q 343 446 507 457 q 299 441 320 442 q 262 438 278 440 q 241 434 247 436 q 235 426 235 432 q 334 409 235 409 q 470 392 432 409 q 521 354 507 374 q 534 304 534 334 q 525 253 534 274 q 499 218 515 231 q 461 196 482 204 q 418 182 440 187 q 372 177 395 177 q 330 173 349 176 q 298 170 311 170 q 274 166 285 170 q 262 158 262 162 q 278 149 262 152 q 309 143 293 147 q 378 139 334 139 l 955 139 l 955 19 l 409 19 q 256 31 299 19 q 193 58 212 42 q 152 143 152 91 q 243 255 152 233 q 299 268 270 262 q 350 272 326 270 q 399 275 374 274 q 424 291 424 276 q 336 311 424 311 z "},"౿":{"ha":1005,"x_min":0,"x_max":957,"o":"m 187 525 q 243 457 187 457 q 280 474 266 457 q 293 509 293 490 q 278 566 293 546 q 241 586 262 586 q 193 544 208 586 q 187 525 187 530 m 220 671 q 390 507 390 671 q 375 448 390 476 q 340 405 361 421 q 251 368 289 368 q 112 455 147 368 q 104 482 106 469 q 98 410 98 467 q 127 293 98 353 q 204 203 156 233 q 461 139 301 139 q 672 197 583 139 q 853 374 762 255 l 860 388 l 957 341 l 949 318 q 801 141 887 206 q 633 48 714 75 q 457 21 552 21 q 299 41 363 21 q 199 82 235 62 q 116 139 162 102 q 35 251 69 176 q 0 421 0 326 q 129 652 0 584 q 220 671 168 671 z "},"‍":{"ha":0,"x_min":0,"x_max":415,"o":"m 0 -660 l 0 1451 l 415 1451 l 415 1345 l 118 1345 l 118 -660 l 0 -660 z "}}}
